<?xml version="1.0" encoding="UTF-8"?>
<svg version="1.1" xmlns="http://www.w3.org/2000/svg" width="120" height="120">
<path d="M0 0 C39.6 0 79.2 0 120 0 C120 39.6 120 79.2 120 120 C80.4 120 40.8 120 0 120 C0 80.4 0 40.8 0 0 Z " fill="#FDFDFD" transform="translate(0,0)"/>
<path d="M0 0 C4.46392158 -0.18670394 7.36149404 0.24256502 10.8046875 3.1640625 C11.6171875 5.3515625 11.6171875 5.3515625 11.8046875 7.1640625 C12.76375 7.380625 12.76375 7.380625 13.7421875 7.6015625 C15.8046875 8.1640625 15.8046875 8.1640625 16.8046875 9.1640625 C16.84549533 11.16364614 16.84723106 13.16451504 16.8046875 15.1640625 C16.0415625 15.3909375 15.2784375 15.6178125 14.4921875 15.8515625 C11.23757707 17.44102341 10.51818787 19.05363221 8.8046875 22.1640625 C11.3672593 22.19116373 13.92954115 22.21095021 16.4921875 22.2265625 C17.21341797 22.23494141 17.93464844 22.24332031 18.67773438 22.25195312 C22.52024132 22.26949882 26.07108276 22.09930471 29.8046875 21.1640625 C29.8046875 20.1740625 29.8046875 19.1840625 29.8046875 18.1640625 C27.4946875 18.1640625 25.1846875 18.1640625 22.8046875 18.1640625 C22.4746875 16.5140625 22.1446875 14.8640625 21.8046875 13.1640625 C22.5678125 12.8959375 23.3309375 12.6278125 24.1171875 12.3515625 C26.80967225 11.37492501 26.80967225 11.37492501 28.3046875 9.5390625 C29.8046875 8.1640625 29.8046875 8.1640625 32.3671875 7.8515625 C34.8046875 8.1640625 34.8046875 8.1640625 36.8046875 10.1640625 C39.13016757 10.85762673 41.46349195 11.52555462 43.8046875 12.1640625 C44.8046875 13.1640625 44.8046875 13.1640625 44.8671875 16.2265625 C44.8465625 17.1959375 44.8259375 18.1653125 44.8046875 19.1640625 C43.98484375 19.18984375 43.165 19.215625 42.3203125 19.2421875 C40.70382813 19.32726563 40.70382813 19.32726563 39.0546875 19.4140625 C37.98734375 19.46046875 36.92 19.506875 35.8203125 19.5546875 C32.23929738 20.27831232 31.18675435 21.48946113 28.8046875 24.1640625 C26.0546875 24.9140625 26.0546875 24.9140625 23.8046875 25.1640625 C24.02125 25.79054688 24.2378125 26.41703125 24.4609375 27.0625 C24.739375 27.87976563 25.0178125 28.69703125 25.3046875 29.5390625 C25.583125 30.35117187 25.8615625 31.16328125 26.1484375 32 C26.8046875 34.1640625 26.8046875 34.1640625 26.8046875 36.1640625 C29.7746875 35.1740625 32.7446875 34.1840625 35.8046875 33.1640625 C34.1546875 32.1740625 32.5046875 31.1840625 30.8046875 30.1640625 C30.9921875 27.7890625 30.9921875 27.7890625 31.8046875 25.1640625 C35.14625997 23.21481189 37.98584196 22.94584276 41.8046875 23.1640625 C42.2996875 24.6490625 42.2996875 24.6490625 42.8046875 26.1640625 C44.81977108 26.89730046 44.81977108 26.89730046 46.8046875 27.1640625 C46.8046875 28.4840625 46.8046875 29.8040625 46.8046875 31.1640625 C44.09589415 32.51845918 41.79535482 32.22907701 38.8046875 32.1640625 C38.4502356 33.10354736 38.4502356 33.10354736 38.08862305 34.06201172 C36.42909697 36.77897683 35.30058605 36.99478264 32.26171875 37.796875 C31.35228516 38.04566406 30.44285156 38.29445312 29.50585938 38.55078125 C28.55259766 38.79441406 27.59933594 39.03804687 26.6171875 39.2890625 C25.68326172 39.54042969 24.74933594 39.79179688 23.78710938 40.05078125 C21.96600047 40.54034044 20.14327819 41.02394504 18.31884766 41.50097656 C15.1328303 42.34125847 11.96877628 43.24503256 8.8046875 44.1640625 C10.35126888 47.4843456 11.11923199 48.91152626 14.625 50.203125 C15.71554688 50.39648438 16.80609375 50.58984375 17.9296875 50.7890625 C23.43572467 51.86807314 28.52266653 53.28402114 33.8046875 55.1640625 C33.8046875 55.8240625 33.8046875 56.4840625 33.8046875 57.1640625 C32.8146875 57.1640625 31.8246875 57.1640625 30.8046875 57.1640625 C31.58598821 59.65958734 31.58598821 59.65958734 32.8046875 62.1640625 C33.7946875 62.4940625 34.7846875 62.8240625 35.8046875 63.1640625 C36.47135417 64.49739583 37.13802083 65.83072917 37.8046875 67.1640625 C39.2896875 67.6590625 39.2896875 67.6590625 40.8046875 68.1640625 C41.7946875 73.1140625 41.7946875 73.1140625 42.8046875 78.1640625 C41.4846875 78.1640625 40.1646875 78.1640625 38.8046875 78.1640625 C39.1346875 76.1840625 39.4646875 74.2040625 39.8046875 72.1640625 C38.3196875 71.6690625 38.3196875 71.6690625 36.8046875 71.1640625 C36.4746875 70.1740625 36.1446875 69.1840625 35.8046875 68.1640625 C34.8146875 67.6690625 34.8146875 67.6690625 33.8046875 67.1640625 C33.9696875 68.2365625 34.1346875 69.3090625 34.3046875 70.4140625 C34.8046875 74.1640625 34.8046875 74.1640625 34.8046875 78.1640625 C35.7946875 78.8240625 36.7846875 79.4840625 37.8046875 80.1640625 C37.3096875 82.1440625 37.3096875 82.1440625 36.8046875 84.1640625 C35.1546875 83.8340625 33.5046875 83.5040625 31.8046875 83.1640625 C31.3096875 79.6990625 31.3096875 79.6990625 30.8046875 76.1640625 C28.61350977 76.98608234 28.61350977 76.98608234 27.953125 79.23046875 C27.69789062 80.05417969 27.44265625 80.87789063 27.1796875 81.7265625 C26.91929688 82.55285156 26.65890625 83.37914063 26.390625 84.23046875 C26.19726562 84.86855469 26.00390625 85.50664063 25.8046875 86.1640625 C26.4646875 86.1640625 27.1246875 86.1640625 27.8046875 86.1640625 C27.3096875 88.1440625 27.3096875 88.1440625 26.8046875 90.1640625 C25.8146875 89.8340625 24.8246875 89.5040625 23.8046875 89.1640625 C23.66964612 87.22846937 23.57267621 85.2901905 23.4921875 83.3515625 C23.43417969 82.27261719 23.37617187 81.19367188 23.31640625 80.08203125 C23.47753906 79.11910156 23.63867188 78.15617187 23.8046875 77.1640625 C26.19921875 75.52734375 26.19921875 75.52734375 28.8046875 74.1640625 C30.86626612 71.2111543 31.00769635 69.12430236 30.5546875 65.6015625 C30.46703125 64.83714844 30.379375 64.07273438 30.2890625 63.28515625 C29.87204691 60.87993357 29.87204691 60.87993357 27.8046875 58.1640625 C25.22088573 57.91375273 25.22088573 57.91375273 22.8046875 58.1640625 C23.1346875 59.1540625 23.4646875 60.1440625 23.8046875 61.1640625 C25.4546875 61.4940625 27.1046875 61.8240625 28.8046875 62.1640625 C28.8046875 65.1340625 28.8046875 68.1040625 28.8046875 71.1640625 C27.4846875 71.1640625 26.1646875 71.1640625 24.8046875 71.1640625 C25.4646875 69.1840625 26.1246875 67.2040625 26.8046875 65.1640625 C26.1446875 65.1640625 25.4846875 65.1640625 24.8046875 65.1640625 C24.8046875 64.1740625 24.8046875 63.1840625 24.8046875 62.1640625 C23.1546875 62.1640625 21.5046875 62.1640625 19.8046875 62.1640625 C19.5365625 61.5246875 19.2684375 60.8853125 18.9921875 60.2265625 C17.91800998 57.83274564 17.91800998 57.83274564 14.8046875 57.1640625 C14.8046875 57.8240625 14.8046875 58.4840625 14.8046875 59.1640625 C15.7946875 59.4940625 16.7846875 59.8240625 17.8046875 60.1640625 C17.9284375 61.2571875 18.0521875 62.3503125 18.1796875 63.4765625 C18.55933551 67.23788052 18.55933551 67.23788052 20.8046875 70.1640625 C21.7946875 70.4940625 22.7846875 70.8240625 23.8046875 71.1640625 C23.3096875 73.1440625 23.3096875 73.1440625 22.8046875 75.1640625 C21.8146875 74.8340625 20.8246875 74.5040625 19.8046875 74.1640625 C18.6171875 71.6015625 18.6171875 71.6015625 17.8046875 69.1640625 C16.97247899 73.14016982 16.57370308 76.2472939 17.8046875 80.1640625 C18.7946875 80.6590625 18.7946875 80.6590625 19.8046875 81.1640625 C19.8046875 84.7940625 19.8046875 88.4240625 19.8046875 92.1640625 C18.4846875 92.1640625 17.1646875 92.1640625 15.8046875 92.1640625 C16.09765625 90.14583333 16.390625 88.12760417 16.68359375 86.109375 C16.9731172 84.08265583 16.9731172 84.08265583 15.8046875 82.1640625 C15.8046875 84.1440625 15.8046875 86.1240625 15.8046875 88.1640625 C13.3296875 88.6590625 13.3296875 88.6590625 10.8046875 89.1640625 C10.4746875 87.8440625 10.1446875 86.5240625 9.8046875 85.1640625 C10.7946875 84.8340625 11.7846875 84.5040625 12.8046875 84.1640625 C12.79308594 83.56078125 12.78148437 82.9575 12.76953125 82.3359375 C12.76050781 81.53671875 12.75148437 80.7375 12.7421875 79.9140625 C12.73058594 79.12515625 12.71898437 78.33625 12.70703125 77.5234375 C12.80083444 75.25715248 13.17227687 73.335173 13.8046875 71.1640625 C11.3296875 71.6590625 11.3296875 71.6590625 8.8046875 72.1640625 C9.4853125 71.3184375 10.1659375 70.4728125 10.8671875 69.6015625 C13.18952353 65.4812889 12.95166298 63.66373555 11.8046875 59.1640625 C11.4746875 58.8340625 11.1446875 58.5040625 10.8046875 58.1640625 C9.27949474 58.25344053 7.75786821 58.40943396 6.2421875 58.6015625 C5.41589844 58.70339844 4.58960937 58.80523437 3.73828125 58.91015625 C3.10019531 58.99394531 2.46210937 59.07773438 1.8046875 59.1640625 C1.8046875 60.8140625 1.8046875 62.4640625 1.8046875 64.1640625 C3.7846875 64.8240625 5.7646875 65.4840625 7.8046875 66.1640625 C7.3096875 67.6490625 7.3096875 67.6490625 6.8046875 69.1640625 C3.8046875 69.1640625 3.8046875 69.1640625 2.1171875 67.6640625 C1.6840625 67.1690625 1.2509375 66.6740625 0.8046875 66.1640625 C1.42623002 70.24722581 1.42623002 70.24722581 2.4921875 74.2265625 C2.93243186 76.95607754 1.83084109 78.59867852 0.8046875 81.1640625 C0.34164847 84.15368404 0.05423879 87.14974561 -0.1953125 90.1640625 C-1.8453125 89.8340625 -3.4953125 89.5040625 -5.1953125 89.1640625 C-4.8653125 87.8440625 -4.5353125 86.5240625 -4.1953125 85.1640625 C-3.5353125 85.1640625 -2.8753125 85.1640625 -2.1953125 85.1640625 C-2.14126801 82.41379833 -2.10161944 79.66460047 -2.0703125 76.9140625 C-2.05355469 76.13675781 -2.03679688 75.35945313 -2.01953125 74.55859375 C-1.98506951 70.52657053 -2.0132214 67.68496647 -4.1953125 64.1640625 C-3.89429387 60.85285759 -2.66672782 59.3131193 -0.1953125 57.1640625 C-4.23535147 59.2386771 -6.20038012 61.07445111 -8.1953125 65.1640625 C-8.84744542 67.18869505 -8.84744542 67.18869505 -9.1953125 69.1640625 C-9.52864583 70.49739583 -9.86197917 71.83072917 -10.1953125 73.1640625 C-9.5353125 73.1640625 -8.8753125 73.1640625 -8.1953125 73.1640625 C-8.80276647 78.02369429 -10.92290217 81.9046143 -13.1953125 86.1640625 C-14.1853125 86.1640625 -15.1753125 86.1640625 -16.1953125 86.1640625 C-16.6903125 83.6890625 -16.6903125 83.6890625 -17.1953125 81.1640625 C-15.2153125 80.1740625 -15.2153125 80.1740625 -13.1953125 79.1640625 C-13.1953125 75.8640625 -13.1953125 72.5640625 -13.1953125 69.1640625 C-16.1653125 69.6590625 -16.1653125 69.6590625 -19.1953125 70.1640625 C-19.3809375 71.123125 -19.3809375 71.123125 -19.5703125 72.1015625 C-19.7765625 72.7821875 -19.9828125 73.4628125 -20.1953125 74.1640625 C-21.1853125 74.6590625 -21.1853125 74.6590625 -22.1953125 75.1640625 C-22.1953125 76.8140625 -22.1953125 78.4640625 -22.1953125 80.1640625 C-23.5153125 80.1640625 -24.8353125 80.1640625 -26.1953125 80.1640625 C-25.88627267 78.82488989 -25.54508008 77.49317932 -25.1953125 76.1640625 C-25.0303125 75.1946875 -24.8653125 74.2253125 -24.6953125 73.2265625 C-22.72771491 69.20938409 -20.42651022 68.34216136 -16.5234375 66.390625 C-12.81908813 64.4390047 -9.1044844 61.9824063 -7.1953125 58.1640625 C-10.1653125 57.8340625 -13.1353125 57.5040625 -16.1953125 57.1640625 C-16.1953125 56.5040625 -16.1953125 55.8440625 -16.1953125 55.1640625 C-14.96554688 55.10798828 -14.96554688 55.10798828 -13.7109375 55.05078125 C-12.63328125 54.98503906 -11.555625 54.91929688 -10.4453125 54.8515625 C-9.37796875 54.79355469 -8.310625 54.73554687 -7.2109375 54.67578125 C-3.98397182 54.12820029 -2.52527783 53.42208116 -0.1953125 51.1640625 C0.54436066 48.28755577 0.10615901 46.70650259 -1.32421875 44.1328125 C-2.22470299 42.71666634 -3.15003102 41.31595754 -4.1015625 39.93359375 C-5.1953125 38.1640625 -5.1953125 38.1640625 -5.1953125 36.1640625 C-6.02675781 36.18726563 -6.85820313 36.21046875 -7.71484375 36.234375 C-8.80152344 36.25242188 -9.88820313 36.27046875 -11.0078125 36.2890625 C-12.08675781 36.31226563 -13.16570313 36.33546875 -14.27734375 36.359375 C-17.1953125 36.1640625 -17.1953125 36.1640625 -20.1953125 34.1640625 C-20.5078125 31.6640625 -20.5078125 31.6640625 -20.1953125 29.1640625 C-17.73004364 26.69879364 -15.48049677 26.21252557 -12.1953125 25.1640625 C-11.8653125 24.8340625 -11.5353125 24.5040625 -11.1953125 24.1640625 C-8.85586514 24.45136305 -6.5213982 24.78343029 -4.1953125 25.1640625 C-4.1953125 25.8240625 -4.1953125 26.4840625 -4.1953125 27.1640625 C-3.23625 27.380625 -3.23625 27.380625 -2.2578125 27.6015625 C-0.1953125 28.1640625 -0.1953125 28.1640625 0.8046875 29.1640625 C0.84532582 30.83023365 0.8474085 32.49794345 0.8046875 34.1640625 C-1.1753125 34.6590625 -1.1753125 34.6590625 -3.1953125 35.1640625 C-2.2053125 37.1440625 -1.2153125 39.1240625 -0.1953125 41.1640625 C0.57232422 40.19533203 0.57232422 40.19533203 1.35546875 39.20703125 C4.61326231 36.48960536 6.79815053 36.60260092 10.9921875 36.4765625 C15.21629009 36.71801607 15.21629009 36.71801607 18.8046875 35.1640625 C19.05201887 31.02129375 19.05201887 31.02129375 17.8046875 27.1640625 C16.10418897 26.89927899 14.39290396 26.70244827 12.6796875 26.5390625 C7.29530198 25.70805402 7.29530198 25.70805402 5.1171875 23.29296875 C4.6428125 22.56980469 4.1684375 21.84664062 3.6796875 21.1015625 C1.95975991 18.74146335 0.73681883 17.38770872 -2.14697266 16.69580078 C-7.153457 16.07906781 -12.15818007 16.07340545 -17.1953125 16.1640625 C-16.61235255 12.98276675 -15.88901921 10.00678981 -14.7578125 6.9765625 C-14.51160156 6.30238281 -14.26539063 5.62820312 -14.01171875 4.93359375 C-13.1953125 3.1640625 -13.1953125 3.1640625 -11.1953125 1.1640625 C-7.52732224 0.35740904 -3.73871001 0.27940537 0 0 Z " fill="#1C1C24" transform="translate(47.1953125,16.8359375)"/>
<path d="M0 0 C0 0.66 0 1.32 0 2 C-0.99 2 -1.98 2 -3 2 C-2.21869929 4.49552484 -2.21869929 4.49552484 -1 7 C-0.01 7.33 0.98 7.66 2 8 C2.66666667 9.33333333 3.33333333 10.66666667 4 12 C4.99 12.33 5.98 12.66 7 13 C7.66 16.3 8.32 19.6 9 23 C7.68 23 6.36 23 5 23 C5.33 21.02 5.66 19.04 6 17 C5.01 16.67 4.02 16.34 3 16 C2.67 15.01 2.34 14.02 2 13 C1.34 12.67 0.68 12.34 0 12 C0.165 13.0725 0.33 14.145 0.5 15.25 C1 19 1 19 1 23 C1.99 23.66 2.98 24.32 4 25 C3.67 26.32 3.34 27.64 3 29 C1.35 28.67 -0.3 28.34 -2 28 C-2.33 25.69 -2.66 23.38 -3 21 C-5.19117773 21.82201984 -5.19117773 21.82201984 -5.8515625 24.06640625 C-6.23441406 25.30197266 -6.23441406 25.30197266 -6.625 26.5625 C-6.88539062 27.38878906 -7.14578125 28.21507812 -7.4140625 29.06640625 C-7.60742188 29.70449219 -7.80078125 30.34257813 -8 31 C-7.34 31 -6.68 31 -6 31 C-6.33 32.32 -6.66 33.64 -7 35 C-7.99 34.67 -8.98 34.34 -10 34 C-10.13504138 32.06440687 -10.23201129 30.126128 -10.3125 28.1875 C-10.37050781 27.10855469 -10.42851563 26.02960938 -10.48828125 24.91796875 C-10.32714844 23.95503906 -10.16601562 22.99210937 -10 22 C-7.60546875 20.36328125 -7.60546875 20.36328125 -5 19 C-2.93842138 16.0470918 -2.79699115 13.96023986 -3.25 10.4375 C-3.33765625 9.67308594 -3.4253125 8.90867187 -3.515625 8.12109375 C-3.93264059 5.71587107 -3.93264059 5.71587107 -6 3 C-8.58380177 2.74969023 -8.58380177 2.74969023 -11 3 C-10.67 3.99 -10.34 4.98 -10 6 C-8.35 6.33 -6.7 6.66 -5 7 C-5 9.97 -5 12.94 -5 16 C-6.32 16 -7.64 16 -9 16 C-8.34 14.02 -7.68 12.04 -7 10 C-7.66 10 -8.32 10 -9 10 C-9 9.01 -9 8.02 -9 7 C-9.804375 7.020625 -10.60875 7.04125 -11.4375 7.0625 C-14 7 -14 7 -15 6 C-15.04080783 4.00041636 -15.04254356 1.99954746 -15 0 C-15.94875 -0.28875 -16.8975 -0.5775 -17.875 -0.875 C-21 -2 -21 -2 -23 -4 C-15.56540575 -6.38179221 -7.03337236 -2.54832332 0 0 Z " fill="#2A2931" transform="translate(81,72)"/>
<path d="M0 0 C2.4375 0.3125 2.4375 0.3125 4.4375 2.3125 C6.76298007 3.00606423 9.09630445 3.67399212 11.4375 4.3125 C12.4375 5.3125 12.4375 5.3125 12.5 8.375 C12.479375 9.344375 12.45875 10.31375 12.4375 11.3125 C10.29223901 11.50643875 8.14626323 11.69248676 6 11.875 C4.20755859 12.03162109 4.20755859 12.03162109 2.37890625 12.19140625 C1.40824219 12.23136719 0.43757813 12.27132812 -0.5625 12.3125 C-0.8925 11.9825 -1.2225 11.6525 -1.5625 11.3125 C-2.90997084 11.08174918 -4.26627565 10.90096937 -5.625 10.75 C-6.924375 10.605625 -8.22375 10.46125 -9.5625 10.3125 C-9.8925 8.6625 -10.2225 7.0125 -10.5625 5.3125 C-9.799375 5.044375 -9.03625 4.77625 -8.25 4.5 C-5.55751525 3.52336251 -5.55751525 3.52336251 -4.0625 1.6875 C-2.5625 0.3125 -2.5625 0.3125 0 0 Z " fill="#1A1921" transform="translate(79.5625,24.6875)"/>
<path d="M0 0 C1.79133978 -0.05391993 3.58313899 -0.09275571 5.375 -0.125 C6.37273438 -0.14820312 7.37046875 -0.17140625 8.3984375 -0.1953125 C11 0 11 0 13 2 C11.7934375 3.3303125 11.7934375 3.3303125 10.5625 4.6875 C8.27327034 7.42812706 7.37962157 9.39359504 7 13 C6.67516582 14.33542939 6.3449145 15.66961551 6 17 C6.66 17 7.32 17 8 17 C7.39254603 21.85963179 5.27241033 25.7405518 3 30 C2.01 30 1.02 30 0 30 C-0.33 28.35 -0.66 26.7 -1 25 C0.32 24.34 1.64 23.68 3 23 C3 19.7 3 16.4 3 13 C1.02 13.33 -0.96 13.66 -3 14 C-3.12375 14.639375 -3.2475 15.27875 -3.375 15.9375 C-3.58125 16.618125 -3.7875 17.29875 -4 18 C-4.66 18.33 -5.32 18.66 -6 19 C-6 20.65 -6 22.3 -6 24 C-7.32 24 -8.64 24 -10 24 C-9.69096017 22.66082739 -9.34976758 21.32911682 -9 20 C-8.835 19.030625 -8.67 18.06125 -8.5 17.0625 C-6.53240241 13.04532159 -4.23119772 12.17809886 -0.328125 10.2265625 C3.37622437 8.2749422 7.0908281 5.8183438 9 2 C6.03 1.67 3.06 1.34 0 1 C0 0.67 0 0.34 0 0 Z " fill="#3E3D45" transform="translate(31,73)"/>
<path d="M0 0 C3.875 4.75 3.875 4.75 5 7 C5.99 7.33 6.98 7.66 8 8 C7.67 9.32 7.34 10.64 7 12 C6.01 11.67 5.02 11.34 4 11 C2.8125 8.4375 2.8125 8.4375 2 6 C1.16779149 9.97610732 0.76901558 13.0832314 2 17 C2.66 17.33 3.32 17.66 4 18 C4 21.63 4 25.26 4 29 C2.68 29 1.36 29 0 29 C0.29296875 26.98177083 0.5859375 24.96354167 0.87890625 22.9453125 C1.1684297 20.91859333 1.1684297 20.91859333 0 19 C0 20.98 0 22.96 0 25 C-1.65 25.33 -3.3 25.66 -5 26 C-5.33 24.68 -5.66 23.36 -6 22 C-5.01 21.67 -4.02 21.34 -3 21 C-3.01160156 20.39671875 -3.02320313 19.7934375 -3.03515625 19.171875 C-3.04869141 17.97304687 -3.04869141 17.97304687 -3.0625 16.75 C-3.07410156 15.96109375 -3.08570313 15.1721875 -3.09765625 14.359375 C-3.00385306 12.09308998 -2.63241063 10.1711105 -2 8 C-3.65 8.33 -5.3 8.66 -7 9 C-6.21654285 7.82780457 -5.42297164 6.66236332 -4.625 5.5 C-4.18414062 4.8503125 -3.74328125 4.200625 -3.2890625 3.53125 C-2.65097656 2.77328125 -2.65097656 2.77328125 -2 2 C-1.34 2 -0.68 2 0 2 C0 1.34 0 0.68 0 0 Z " fill="#201F27" transform="translate(63,80)"/>
<path d="M0 0 C0.33 0.99 0.66 1.98 1 3 C1.66 3 2.32 3 3 3 C2.938125 4.11375 2.87625 5.2275 2.8125 6.375 C2.874375 7.57125 2.93625 8.7675 3 10 C3.99 10.66 4.98 11.32 6 12 C5.67 13.32 5.34 14.64 5 16 C3.35 15.67 1.7 15.34 0 15 C-0.33 12.69 -0.66 10.38 -1 8 C-3.19117773 8.82201984 -3.19117773 8.82201984 -3.8515625 11.06640625 C-4.23441406 12.30197266 -4.23441406 12.30197266 -4.625 13.5625 C-4.88539062 14.38878906 -5.14578125 15.21507813 -5.4140625 16.06640625 C-5.60742188 16.70449219 -5.80078125 17.34257813 -6 18 C-5.34 18 -4.68 18 -4 18 C-4.33 19.32 -4.66 20.64 -5 22 C-5.99 21.67 -6.98 21.34 -8 21 C-8.13504138 19.06440687 -8.23201129 17.126128 -8.3125 15.1875 C-8.37050781 14.10855469 -8.42851563 13.02960938 -8.48828125 11.91796875 C-8.32714844 10.95503906 -8.16601562 9.99210937 -8 9 C-5.59375 7.3125 -5.59375 7.3125 -3 6 C-1.17370206 2.93319201 -1.17370206 2.93319201 0 0 Z " fill="#26252D" transform="translate(79,85)"/>
<path d="M0 0 C1.9375 0.3125 1.9375 0.3125 4 1 C4.33 1.99 4.66 2.98 5 4 C6.65 4.33 8.3 4.66 10 5 C10 5.99 10 6.98 10 8 C10.66 8 11.32 8 12 8 C11.67 10.31 11.34 12.62 11 15 C7.44114781 14.13005835 5.46769346 13.57682194 3.125 10.6875 C1.94794231 7.87563996 1.7417478 6.01294233 2 3 C1.34 2.67 0.68 2.34 0 2 C0 1.34 0 0.68 0 0 Z " fill="#EDEDED" transform="translate(62,74)"/>
<path d="M0 0 C1.5625 1.25 1.5625 1.25 3 3 C2.72566988 4.3467115 2.37520768 5.67783961 2 7 C1.62818868 9.24715161 1.27537559 11.49749604 0.9375 13.75 C0.76089844 14.92046875 0.58429687 16.0909375 0.40234375 17.296875 C0.20318359 18.63492188 0.20318359 18.63492188 0 20 C-1.65 19.67 -3.3 19.34 -5 19 C-4.67 17.68 -4.34 16.36 -4 15 C-3.34 15 -2.68 15 -2 15 C-2.02320313 14.16855469 -2.04640625 13.33710937 -2.0703125 12.48046875 C-2.08835938 11.39378906 -2.10640625 10.30710937 -2.125 9.1875 C-2.14820313 8.10855469 -2.17140625 7.02960938 -2.1953125 5.91796875 C-2 3 -2 3 0 0 Z " fill="#25242C" transform="translate(47,87)"/>
<path d="M0 0 C7.35036018 -0.48199083 7.35036018 -0.48199083 9.9375 1.4375 C11.5064494 5.2214368 12.15801268 8.89919477 12 13 C10.5625 15.5625 10.5625 15.5625 9 17 C8.01751476 12.9472484 7.91840426 9.16138263 8 5 C7.360625 4.87625 6.72125 4.7525 6.0625 4.625 C5.381875 4.41875 4.70125 4.2125 4 4 C3.67 3.34 3.34 2.68 3 2 C2.01 1.34 1.02 0.68 0 0 Z " fill="#EAEAEB" transform="translate(67,74)"/>
<path d="M0 0 C0.99 0.33 1.98 0.66 3 1 C2.39254603 5.85963179 0.27241033 9.7405518 -2 14 C-2.99 14 -3.98 14 -5 14 C-5.33 12.35 -5.66 10.7 -6 9 C-4.68 8.34 -3.36 7.68 -2 7 C-2.061875 5.824375 -2.061875 5.824375 -2.125 4.625 C-2 2 -2 2 0 0 Z " fill="#2F2E36" transform="translate(36,89)"/>
<path d="M0 0 C2.475 0.495 2.475 0.495 5 1 C5 1.66 5 2.32 5 3 C6.65 3.33 8.3 3.66 10 4 C10 6.97 10 9.94 10 13 C8.68 13 7.36 13 6 13 C6.66 11.02 7.32 9.04 8 7 C7.34 7 6.68 7 6 7 C6 6.01 6 5.02 6 4 C4.35 4 2.7 4 1 4 C0.67 2.68 0.34 1.36 0 0 Z " fill="#27262E" transform="translate(66,75)"/>
<path d="M0 0 C0.89203125 0.19464844 1.7840625 0.38929687 2.703125 0.58984375 C3.37859375 0.74582031 4.0540625 0.90179688 4.75 1.0625 C3.43 2.0525 2.11 3.0425 0.75 4.0625 C3.72 4.5575 3.72 4.5575 6.75 5.0625 C6.75 5.3925 6.75 5.7225 6.75 6.0625 C4.11 6.3925 1.47 6.7225 -1.25 7.0625 C-1.25 6.0725 -1.25 5.0825 -1.25 4.0625 C-2.19875 3.77375 -3.1475 3.485 -4.125 3.1875 C-7.25 2.0625 -7.25 2.0625 -9.25 0.0625 C-5.84598052 -1.07482426 -3.47543336 -0.77739957 0 0 Z " fill="#636268" transform="translate(67.25,67.9375)"/>
<path d="M0 0 C0.99 0 1.98 0 3 0 C3 1.32 3 2.64 3 4 C2.34 4 1.68 4 1 4 C1 6.97 1 9.94 1 13 C-0.32 12.67 -1.64 12.34 -3 12 C-2.68950274 10.56206608 -2.3765224 9.1246682 -2.0625 7.6875 C-1.88847656 6.88699219 -1.71445312 6.08648437 -1.53515625 5.26171875 C-1 3 -1 3 0 0 Z " fill="#33323A" transform="translate(53,89)"/>
<path d="M0 0 C2.5625 2.25 2.5625 2.25 5 5 C4.8125 7.3125 4.8125 7.3125 4 9 C2.35 8.67 0.7 8.34 -1 8 C-0.67 5.36 -0.34 2.72 0 0 Z " fill="#2D2C34" transform="translate(80,92)"/>
<path d="M0 0 C6.625 -0.25 6.625 -0.25 10 2 C9.67 3.32 9.34 4.64 9 6 C8.34 5.34 7.68 4.68 7 4 C4.67724823 3.59952556 2.34260643 3.2602896 0 3 C0 2.01 0 1.02 0 0 Z " fill="#27262E" transform="translate(67,70)"/>
<path d="M0 0 C0.99 0 1.98 0 3 0 C3 1.32 3 2.64 3 4 C2.01 4.495 2.01 4.495 1 5 C1 6.65 1 8.3 1 10 C-0.32 10 -1.64 10 -3 10 C-2.21302675 6.58978257 -1.12880057 3.31114834 0 0 Z " fill="#292830" transform="translate(24,87)"/>
<path d="M0 0 C0.33 0.99 0.66 1.98 1 3 C1.66 3 2.32 3 3 3 C2.67 4.32 2.34 5.64 2 7 C0.35 6.67 -1.3 6.34 -3 6 C-2.67 4.68 -2.34 3.36 -2 2 C-1.34 2 -0.68 2 0 2 C0 1.34 0 0.68 0 0 Z " fill="#333239" transform="translate(60,99)"/>
<path d="M0 0 C0.99 0.33 1.98 0.66 3 1 C2.67 2.65 2.34 4.3 2 6 C1.01 6 0.02 6 -1 6 C-1.625 4.125 -1.625 4.125 -2 2 C-1.34 1.34 -0.68 0.68 0 0 Z " fill="#1B1A23" transform="translate(36,89)"/>
<path d="M0 0 C0.66 0 1.32 0 2 0 C4 3 4 3 3.75 5 C3 7 3 7 1 10 C0.22157062 6.59437148 -0.09978121 3.49234244 0 0 Z " fill="#D1D1D3" transform="translate(75,81)"/>
<path d="M0 0 C3.875 1.75 3.875 1.75 5 4 C5.99 4.33 6.98 4.66 8 5 C7.67 6.32 7.34 7.64 7 9 C6.01 8.67 5.02 8.34 4 8 C3.29788106 6.34795544 2.63028587 4.68076231 2 3 C1.34 2.67 0.68 2.34 0 2 C0 1.34 0 0.68 0 0 Z " fill="#3E3D45" transform="translate(63,83)"/>
<path d="M0 0 C0.66 0.66 1.32 1.32 2 2 C-1.3340947 4.19097652 -4.04179141 5.43454163 -8 6 C-8 5.01 -8 4.02 -8 3 C-5.36 2.01 -2.72 1.02 0 0 Z " fill="#36353D" transform="translate(84,49)"/>
<path d="M0 0 C0.66 0.33 1.32 0.66 2 1 C1.875 2.875 1.875 2.875 1 5 C-1.875 6.375 -1.875 6.375 -5 7 C-5.99 6.34 -6.98 5.68 -8 5 C-5.36 4.34 -2.72 3.68 0 3 C0 2.01 0 1.02 0 0 Z " fill="#393840" transform="translate(77,35)"/>
<path d="M0 0 C0.33 0 0.66 0 1 0 C1 2.64 1 5.28 1 8 C-0.32 8 -1.64 8 -3 8 C-2.37240135 5.07120629 -1.41377341 2.63904371 0 0 Z " fill="#404047" transform="translate(66,101)"/>
<path d="M0 0 C-1.14728098 3.44184294 -2.03284654 4.08007717 -5 6 C-5.99 6.33 -6.98 6.66 -8 7 C-6.13932792 2.84926997 -4.83061881 0 0 0 Z " fill="#E1E1E2" transform="translate(47,74)"/>
<path d="M0 0 C2.31 0.66 4.62 1.32 7 2 C6.67 2.99 6.34 3.98 6 5 C3 5 3 5 1.3125 3.625 C0 2 0 2 0 0 Z " fill="#2F2E36" transform="translate(48,81)"/>
<path d="M0 0 C1.32 0 2.64 0 4 0 C4 0.66 4 1.32 4 2 C3.01 2 2.02 2 1 2 C1.66 3.65 2.32 5.3 3 7 C2.01 7.495 2.01 7.495 1 8 C-0.35439668 5.29120665 -0.06501451 2.99066732 0 0 Z " fill="#49484F" transform="translate(77,72)"/>
</svg>
