<svg width="221" height="221" viewBox="0 0 221 221" fill="none" xmlns="http://www.w3.org/2000/svg">
<path d="M106.016 55.4957C105.743 55.5375 105.48 55.6329 105.243 55.7764C105.006 55.9199 104.8 56.1086 104.636 56.3319C104.472 56.5551 104.354 56.8084 104.288 57.0774C104.223 57.3463 104.211 57.6256 104.253 57.8992C104.417 58.9683 104.5 59.811 104.405 60.3028C104.311 60.7958 104.023 61.3718 103.195 62.358C102.367 63.3443 100.813 64.7716 100.007 66.9257C99.2022 69.0788 99.503 71.136 99.6896 72.8605C99.7193 73.1356 99.8029 73.4021 99.9356 73.6448C100.068 73.8875 100.248 74.1018 100.463 74.2752C100.679 74.4487 100.926 74.578 101.192 74.6558C101.457 74.7335 101.735 74.7583 102.01 74.7285C102.285 74.6988 102.552 74.6152 102.795 74.4825C103.037 74.3497 103.252 74.1705 103.425 73.955C103.598 73.7395 103.728 73.4919 103.806 73.2264C103.883 72.9609 103.908 72.6827 103.878 72.4077C103.692 70.6831 103.619 69.292 103.952 68.4018C104.285 67.5124 105.382 66.3089 106.421 65.0707C107.461 63.8325 108.257 62.5831 108.542 61.0996C108.827 59.615 108.58 58.3288 108.416 57.2592C108.331 56.7073 108.031 56.2115 107.581 55.8809C107.131 55.5502 106.568 55.4117 106.016 55.4957Z" fill="white"/>
<path d="M78.7562 94.2283C78.4951 94.1362 78.2184 94.0965 77.942 94.1115C77.6656 94.1264 77.3948 94.1958 77.1452 94.3154C76.8958 94.4355 76.6725 94.6034 76.4881 94.8098C76.3036 95.0161 76.1617 95.2568 76.0703 95.518C75.9789 95.7792 75.9399 96.0558 75.9555 96.3322C75.9711 96.6085 76.0409 96.879 76.1611 97.1283C78.5567 102.106 80.9413 107.072 82.6011 110.065C84.2606 113.057 85.3557 114.197 86.1454 114.968C86.5456 115.357 87.0843 115.572 87.6428 115.565C88.2013 115.557 88.734 115.329 89.1238 114.929C89.514 114.529 89.7295 113.991 89.723 113.432C89.7165 112.874 89.4884 112.341 89.0889 111.95C88.2991 111.18 87.8125 110.773 86.2848 108.018C84.7573 105.264 82.3536 100.277 79.958 95.2995C79.715 94.7974 79.2828 94.4121 78.7562 94.2283Z" fill="white"/>
<path d="M58.4107 132.848C58.0758 132.847 57.7544 132.979 57.5168 133.215C57.2792 133.451 57.145 133.771 57.1436 134.106C57.1431 134.272 57.1756 134.437 57.2388 134.59C57.3021 134.744 57.3949 134.884 57.5122 135.001C57.6295 135.119 57.7689 135.213 57.9223 135.276C58.0757 135.34 58.2402 135.373 58.4063 135.373L148.797 135.53C149.132 135.531 149.453 135.399 149.691 135.163C149.928 134.927 150.062 134.606 150.064 134.271C150.064 134.105 150.032 133.941 149.969 133.787C149.905 133.633 149.812 133.494 149.695 133.376C149.578 133.258 149.439 133.165 149.285 133.101C149.132 133.037 148.967 133.005 148.801 133.004L58.4107 132.848Z" fill="white"/>
<path d="M81.6753 131.969C81.2295 131.977 80.8052 132.162 80.4953 132.483C73.6761 139.567 66.6856 146.575 64.6153 153.423C63.5801 156.846 63.9583 159.99 64.5151 162.732C65.0719 165.474 65.7597 167.865 65.704 169.925C65.5923 174.046 62.4993 178.507 59.1028 183.162C58.8406 183.523 58.7324 183.974 58.8018 184.414C58.8711 184.855 59.1126 185.251 59.473 185.514C59.8335 185.776 60.2834 185.885 60.7242 185.817C61.1649 185.748 61.5604 185.508 61.8242 185.148C65.2207 180.493 68.9218 175.644 69.0742 170.017C69.1502 167.203 68.3372 164.608 67.8201 162.061C67.303 159.515 67.0353 157.065 67.8423 154.398C69.4551 149.064 76.1019 141.905 82.9212 134.821C83.2311 134.499 83.4007 134.068 83.3925 133.621C83.3844 133.175 83.1992 132.75 82.8778 132.439C82.7182 132.286 82.5299 132.165 82.3237 132.085C82.1175 132.004 81.8967 131.965 81.6753 131.969Z" fill="white"/>
<path fill-rule="evenodd" clip-rule="evenodd" d="M57.8381 187.761C55.8489 186.31 55.4124 183.518 56.8638 181.528C58.3152 179.539 61.1075 179.103 63.0967 180.554C65.0858 182.006 65.4908 184.841 64.0709 186.787C62.6195 188.776 59.8272 189.213 57.8381 187.761Z" fill="white"/>
<path fill-rule="evenodd" clip-rule="evenodd" d="M59.6772 179.177C58.3975 179.377 57.1928 180.059 56.3723 181.184C54.7312 183.433 55.2248 186.61 57.4739 188.251C59.723 189.892 62.8998 189.394 64.5409 187.145C66.1546 184.933 65.691 181.728 63.4349 180.082C62.3103 179.262 60.9569 178.977 59.6772 179.177ZM59.86 180.344C60.8367 180.191 61.8692 180.414 62.7337 181.045C64.456 182.301 64.8045 184.764 63.5786 186.444C62.3169 188.173 59.904 188.55 58.1748 187.289C56.4456 186.027 56.0728 183.614 57.3346 181.885C57.9654 181.02 58.8834 180.496 59.86 180.344Z" fill="white"/>
<path fill-rule="evenodd" clip-rule="evenodd" d="M67.2531 174.428C64.7916 174.361 62.8481 172.309 62.9147 169.848C62.9814 167.386 65.0331 165.443 67.4946 165.509C69.9561 165.576 71.8983 167.681 71.8331 170.089C71.7665 172.551 69.7146 174.495 67.2531 174.428Z" fill="white"/>
<path fill-rule="evenodd" clip-rule="evenodd" d="M67.5017 164.928C64.7186 164.852 62.3868 167.06 62.3114 169.844C62.2361 172.627 64.4443 174.959 67.2274 175.034C70.0106 175.109 72.3424 172.901 72.4177 170.118C72.4917 167.381 70.2935 165.003 67.5017 164.928ZM67.4669 166.116C69.5981 166.174 71.2853 168.004 71.229 170.083C71.171 172.223 69.3977 173.903 67.2579 173.845C65.1181 173.787 63.4422 172.014 63.5002 169.874C63.5581 167.734 65.3271 166.058 67.4669 166.116Z" fill="white"/>
<path fill-rule="evenodd" clip-rule="evenodd" d="M64.9188 158.198C62.5617 157.485 61.2273 154.994 61.9399 152.637C62.6525 150.28 65.1437 148.945 67.5007 149.658C69.8577 150.37 71.1769 152.913 70.4797 155.219C69.7671 157.576 67.2758 158.91 64.9188 158.198Z" fill="white"/>
<path fill-rule="evenodd" clip-rule="evenodd" d="M67.6659 149.089C65.0008 148.284 62.1667 149.799 61.3609 152.464C60.5551 155.129 62.0704 157.959 64.7355 158.765C67.4005 159.57 70.2347 158.055 71.0404 155.39C71.8328 152.769 70.3392 149.898 67.6659 149.089ZM67.3175 150.226C69.3583 150.843 70.5016 153.055 69.8996 155.046C69.2801 157.095 67.1328 158.248 65.0838 157.628C63.0348 157.009 61.8822 154.857 62.5017 152.808C63.1212 150.759 65.2686 149.606 67.3175 150.226Z" fill="white"/>
<path d="M137.315 133.429C137.144 133.569 137.002 133.742 136.897 133.937C136.792 134.132 136.727 134.346 136.705 134.566C136.684 134.787 136.705 135.009 136.77 135.221C136.834 135.433 136.939 135.631 137.08 135.802C141.209 140.848 145.094 145.799 145.788 150.184C146.483 154.57 144.053 159.623 144.116 165.398C144.18 171.172 146.977 176.646 149.603 181.944C149.701 182.143 149.837 182.32 150.004 182.466C150.171 182.611 150.365 182.723 150.575 182.794C150.785 182.864 151.006 182.893 151.227 182.878C151.448 182.863 151.664 182.805 151.863 182.706C152.262 182.508 152.567 182.159 152.71 181.736C152.853 181.313 152.822 180.851 152.625 180.45C149.999 175.153 147.538 170.028 147.487 165.359C147.435 160.689 150.034 155.458 149.115 149.657C148.196 143.856 143.817 138.714 139.688 133.668C139.548 133.496 139.376 133.354 139.18 133.249C138.985 133.144 138.772 133.079 138.551 133.056C138.331 133.034 138.108 133.056 137.896 133.119C137.684 133.183 137.486 133.288 137.315 133.429Z" fill="white"/>
<path fill-rule="evenodd" clip-rule="evenodd" d="M153.158 185.209C150.952 186.302 148.274 185.399 147.18 183.193C146.087 180.986 146.99 178.308 149.196 177.215C151.403 176.121 154.105 177.073 155.174 179.231C156.268 181.437 155.364 184.115 153.158 185.209Z" fill="white"/>
<path fill-rule="evenodd" clip-rule="evenodd" d="M152.795 176.43C151.566 176.011 150.175 176.05 148.924 176.67C146.429 177.906 145.406 180.951 146.642 183.445C147.878 185.94 150.918 186.968 153.413 185.731C155.907 184.495 156.935 181.451 155.699 178.956C155.091 177.729 154.023 176.85 152.795 176.43ZM152.411 177.558C153.352 177.88 154.17 178.551 154.632 179.483C155.583 181.401 154.804 183.714 152.886 184.664C150.968 185.615 148.655 184.836 147.704 182.918C146.754 181 147.537 178.687 149.455 177.737C150.41 177.263 151.47 177.236 152.411 177.558Z" fill="white"/>
<path fill-rule="evenodd" clip-rule="evenodd" d="M145.965 169.845C143.503 169.872 141.483 167.896 141.455 165.434C141.428 162.972 143.404 160.951 145.867 160.924C148.329 160.897 150.35 162.927 150.377 165.335C150.404 167.798 148.428 169.818 145.965 169.845Z" fill="white"/>
<path fill-rule="evenodd" clip-rule="evenodd" d="M145.855 160.319C143.071 160.349 140.821 162.647 140.852 165.431C140.883 168.215 143.18 170.46 145.964 170.429C148.748 170.399 150.993 168.106 150.963 165.322C150.932 162.584 148.648 160.288 145.855 160.319ZM145.868 161.512C148 161.488 149.751 163.255 149.774 165.335C149.798 167.475 148.091 169.217 145.951 169.241C143.811 169.264 142.069 167.558 142.045 165.418C142.022 163.277 143.728 161.535 145.868 161.512Z" fill="white"/>
<path fill-rule="evenodd" clip-rule="evenodd" d="M148.216 154.339C145.784 154.724 143.497 153.063 143.112 150.631C142.727 148.199 144.388 145.912 146.82 145.527C149.252 145.142 151.547 146.856 151.924 149.235C152.309 151.667 150.648 153.953 148.216 154.339Z" fill="white"/>
<path fill-rule="evenodd" clip-rule="evenodd" d="M146.718 144.942C143.968 145.377 142.08 147.974 142.516 150.724C142.951 153.474 145.553 155.362 148.302 154.926C151.052 154.49 152.94 151.893 152.504 149.143C152.076 146.439 149.476 144.505 146.718 144.942ZM146.905 146.117C149.01 145.784 151.003 147.276 151.329 149.331C151.664 151.445 150.229 153.415 148.115 153.75C146.001 154.085 144.026 152.651 143.691 150.537C143.356 148.423 144.791 146.452 146.905 146.117Z" fill="white"/>
<path d="M106.94 132.595C106.719 132.607 106.503 132.663 106.303 132.76C106.104 132.856 105.925 132.991 105.778 133.156C105.631 133.322 105.518 133.515 105.445 133.725C105.373 133.934 105.342 134.156 105.356 134.377C105.369 134.598 105.426 134.815 105.523 135.014C105.62 135.213 105.756 135.391 105.922 135.538C109.445 138.661 112.552 141.623 113.037 144.682C113.521 147.742 111.361 152.47 111.251 157.954C111.141 163.438 113.231 168.708 113.224 173.769C113.215 178.83 111.222 184.354 109.126 190.028C108.972 190.447 108.99 190.91 109.177 191.316C109.364 191.722 109.704 192.037 110.124 192.192C110.543 192.346 111.006 192.328 111.412 192.141C111.818 191.954 112.133 191.614 112.288 191.195C114.384 185.521 116.584 179.693 116.594 173.778C116.603 167.861 114.531 162.524 114.622 158.024C114.712 153.524 117.118 148.894 116.368 144.155C115.617 139.416 111.683 136.14 108.16 133.017C107.994 132.87 107.801 132.757 107.592 132.685C107.383 132.612 107.161 132.582 106.94 132.595Z" fill="white"/>
<path fill-rule="evenodd" clip-rule="evenodd" d="M109.136 194.772C106.827 193.919 105.645 191.352 106.498 189.042C107.351 186.732 109.918 185.55 112.228 186.403C114.538 187.257 115.702 189.874 114.867 192.134C114.013 194.443 111.446 195.626 109.136 194.772Z" fill="white"/>
<path fill-rule="evenodd" clip-rule="evenodd" d="M112.426 185.857C109.815 184.892 106.895 186.232 105.93 188.844C104.965 191.456 106.309 194.376 108.921 195.341C111.533 196.306 114.449 194.961 115.413 192.349C116.362 189.781 115.046 186.825 112.426 185.857ZM112.013 186.972C114.013 187.711 115.019 189.989 114.299 191.94C113.557 193.948 111.343 194.968 109.335 194.226C107.327 193.484 106.303 191.266 107.044 189.258C107.786 187.25 110.005 186.23 112.013 186.972Z" fill="white"/>
<path fill-rule="evenodd" clip-rule="evenodd" d="M114.903 178.23C112.441 178.226 110.445 176.225 110.449 173.762C110.454 171.3 112.455 169.305 114.917 169.309C117.379 169.313 119.375 171.368 119.371 173.776C119.366 176.239 117.365 178.234 114.903 178.23Z" fill="white"/>
<path fill-rule="evenodd" clip-rule="evenodd" d="M114.91 168.703C112.126 168.699 109.851 170.966 109.846 173.75C109.841 176.534 112.108 178.809 114.892 178.814C117.676 178.818 119.951 176.551 119.956 173.767C119.961 171.029 117.702 168.708 114.91 168.703ZM114.905 169.892C117.037 169.896 118.771 171.683 118.767 173.763C118.763 175.904 117.037 177.628 114.897 177.625C112.756 177.621 111.031 175.895 111.034 173.754C111.039 171.613 112.765 169.889 114.905 169.892Z" fill="white"/>
<path fill-rule="evenodd" clip-rule="evenodd" d="M112.851 162.448C110.389 162.399 108.431 160.361 108.48 157.899C108.53 155.437 110.568 153.479 113.03 153.528C115.492 153.578 117.449 155.669 117.4 158.078C117.351 160.54 115.313 162.498 112.851 162.448Z" fill="white"/>
<path fill-rule="evenodd" clip-rule="evenodd" d="M113.032 152.924C110.248 152.868 107.932 155.095 107.876 157.879C107.82 160.663 110.043 162.979 112.827 163.035C115.61 163.09 117.931 160.863 117.987 158.079C118.042 155.342 115.824 152.98 113.032 152.924ZM113.009 154.113C115.141 154.155 116.835 155.978 116.793 158.058C116.75 160.198 114.993 161.889 112.852 161.846C110.712 161.803 109.021 160.041 109.064 157.901C109.107 155.761 110.869 154.07 113.009 154.113Z" fill="white"/>
<path fill-rule="evenodd" clip-rule="evenodd" d="M115.396 148.823C112.964 149.208 110.678 147.547 110.293 145.115C109.908 142.682 111.569 140.396 114.001 140.011C116.433 139.626 118.728 141.34 119.105 143.72C119.49 146.152 117.828 148.438 115.396 148.823Z" fill="white"/>
<path fill-rule="evenodd" clip-rule="evenodd" d="M113.898 139.413C111.148 139.849 109.261 142.446 109.696 145.196C110.132 147.946 112.729 149.833 115.479 149.398C118.229 148.962 120.116 146.365 119.681 143.615C119.253 140.911 116.657 138.977 113.898 139.413ZM114.085 140.589C116.191 140.256 118.18 141.748 118.505 143.802C118.84 145.917 117.406 147.892 115.291 148.226C113.177 148.561 111.207 147.123 110.872 145.008C110.537 142.894 111.971 140.924 114.085 140.589Z" fill="white"/>
<path d="M92.9702 133.05C88.362 136.355 83.1597 140.018 82.3849 146.544C81.6102 153.07 84.9681 161.056 85.3545 168.733C85.741 176.411 83.3932 184.255 80.9567 192.277C80.8923 192.489 80.8702 192.711 80.8918 192.932C80.9134 193.152 80.9783 193.366 81.0826 193.561C81.1869 193.757 81.3288 193.929 81.4999 194.07C81.6711 194.21 81.8682 194.316 82.0801 194.38C82.292 194.444 82.5145 194.466 82.7349 194.445C82.9553 194.423 83.1692 194.358 83.3645 194.254C83.5598 194.15 83.7327 194.008 83.8731 193.837C84.0136 193.666 84.119 193.468 84.1832 193.257C86.6198 185.235 89.1465 177.029 88.7204 168.563C88.2942 160.098 85.1513 151.843 85.7334 146.94C86.3154 142.037 90.3258 139.094 94.934 135.789C95.2971 135.528 95.5419 135.134 95.6146 134.693C95.6873 134.252 95.5819 133.801 95.3215 133.437C95.061 133.074 94.6671 132.829 94.2261 132.757C93.7852 132.684 93.3334 132.79 92.9702 133.05Z" fill="white"/>
<path fill-rule="evenodd" clip-rule="evenodd" d="M81.2719 197.039C78.9158 196.323 77.5843 193.83 78.2999 191.474C79.0156 189.118 81.5086 187.786 83.8647 188.502C86.2208 189.218 87.5366 191.762 86.8365 194.067C86.1209 196.423 83.628 197.754 81.2719 197.039Z" fill="white"/>
<path fill-rule="evenodd" clip-rule="evenodd" d="M84.0252 187.945C81.3612 187.136 78.5294 188.647 77.7202 191.311C76.9111 193.975 78.4221 196.807 81.0861 197.616C83.7501 198.425 86.5819 196.914 87.3911 194.25C88.1868 191.63 86.6975 188.756 84.0252 187.945ZM83.6812 189.081C85.7212 189.701 86.8591 191.916 86.2546 193.906C85.6325 195.954 83.4783 197.101 81.4301 196.479C79.3819 195.857 78.2346 193.703 78.8567 191.655C79.4788 189.607 81.6331 188.459 83.6812 189.081Z" fill="white"/>
<path fill-rule="evenodd" clip-rule="evenodd" d="M87.2741 173.113C84.8148 173.237 82.7184 171.342 82.5946 168.882C82.4709 166.423 84.3662 164.327 86.8255 164.203C89.2847 164.079 91.3838 166.028 91.5049 168.434C91.6287 170.893 89.7333 172.989 87.2741 173.113Z" fill="white"/>
<path fill-rule="evenodd" clip-rule="evenodd" d="M86.78 163.598C83.9993 163.738 81.846 166.121 81.9859 168.902C82.1259 171.682 84.5088 173.836 87.2895 173.696C90.0701 173.556 92.2234 171.177 92.0835 168.397C91.946 165.662 89.5693 163.458 86.78 163.598ZM86.8408 164.787C88.9701 164.68 90.7901 166.376 90.8947 168.453C91.0021 170.591 89.3662 172.404 87.2284 172.511C85.0905 172.619 83.2821 170.983 83.1745 168.845C83.0668 166.707 84.703 164.894 86.8408 164.787Z" fill="white"/>
<path fill-rule="evenodd" clip-rule="evenodd" d="M83.5301 151.188C81.0849 150.898 79.3359 148.678 79.6262 146.232C79.9165 143.787 82.1366 142.038 84.5818 142.328C87.027 142.619 88.7696 144.892 88.4857 147.284C88.1954 149.729 85.9753 151.478 83.5301 151.188Z" fill="white"/>
<path fill-rule="evenodd" clip-rule="evenodd" d="M84.6437 141.727C81.8789 141.399 79.3549 143.386 79.0267 146.151C78.6984 148.916 80.6858 151.44 83.4506 151.768C86.2154 152.096 88.7394 150.109 89.0676 147.344C89.3904 144.625 87.417 142.056 84.6437 141.727ZM84.5044 142.907C86.6214 143.158 88.1328 145.135 87.8876 147.2C87.6353 149.326 85.7199 150.836 83.5943 150.583C81.4687 150.331 79.9587 148.416 80.211 146.29C80.4634 144.164 82.3787 142.655 84.5044 142.907Z" fill="white"/>
<path d="M148.965 148.389C148.838 148.283 148.69 148.203 148.532 148.153C148.373 148.104 148.207 148.086 148.041 148.101C147.876 148.116 147.715 148.163 147.568 148.24C147.421 148.318 147.291 148.423 147.184 148.55C147.078 148.678 146.998 148.825 146.948 148.984C146.899 149.142 146.881 149.309 146.896 149.474C146.911 149.64 146.958 149.801 147.035 149.948C147.113 150.095 147.218 150.225 147.345 150.331C151.518 153.812 155.587 157.255 157.73 160.843C159.874 164.431 160.337 168.477 160.8 172.747C160.837 173.08 161.004 173.385 161.265 173.595C161.526 173.805 161.86 173.903 162.194 173.866C162.527 173.83 162.832 173.663 163.042 173.401C163.251 173.14 163.349 172.806 163.313 172.473C162.849 168.203 162.386 163.708 159.899 159.545C157.411 155.382 153.137 151.87 148.965 148.389Z" fill="white"/>
<path fill-rule="evenodd" clip-rule="evenodd" d="M162.42 175.947C160.584 176.146 158.932 174.818 158.733 172.982C158.534 171.146 159.862 169.494 161.698 169.295C163.534 169.095 165.19 170.464 165.385 172.26C165.584 174.096 164.256 175.748 162.42 175.947Z" fill="white"/>
<path fill-rule="evenodd" clip-rule="evenodd" d="M161.65 168.855C159.574 169.08 158.068 170.959 158.293 173.035C158.518 175.111 160.393 176.622 162.469 176.397C164.545 176.171 166.055 174.292 165.83 172.216C165.609 170.175 163.732 168.629 161.65 168.855ZM161.75 169.743C163.34 169.571 164.774 170.761 164.942 172.312C165.115 173.908 163.969 175.335 162.373 175.508C160.777 175.682 159.35 174.535 159.177 172.939C159.004 171.343 160.154 169.916 161.75 169.743Z" fill="white"/>
<path fill-rule="evenodd" clip-rule="evenodd" d="M160.537 163.076C158.952 164.023 156.897 163.506 155.949 161.92C155.002 160.335 155.52 158.279 157.105 157.332C158.691 156.385 160.767 156.937 161.693 158.488C162.641 160.074 162.123 162.129 160.537 163.076Z" fill="white"/>
<path fill-rule="evenodd" clip-rule="evenodd" d="M159.757 156.546C158.813 156.304 157.778 156.413 156.879 156.95C155.086 158.022 154.497 160.361 155.568 162.154C156.639 163.946 158.974 164.536 160.767 163.464C162.559 162.393 163.149 160.054 162.078 158.261C161.551 157.38 160.7 156.787 159.757 156.546ZM159.539 157.408C160.262 157.593 160.911 158.049 161.311 158.718C162.135 160.097 161.688 161.875 160.31 162.698C158.932 163.522 157.158 163.075 156.334 161.697C155.511 160.318 155.958 158.54 157.336 157.717C158.022 157.307 158.817 157.222 159.539 157.408Z" fill="white"/>
<path d="M145.596 164.5C145.268 164.436 144.929 164.505 144.651 164.691C140.018 167.811 135.124 171.004 133.091 176.004C131.058 181.003 132.16 187.058 133.134 192.929C133.189 193.259 133.372 193.554 133.644 193.749C133.916 193.944 134.254 194.023 134.584 193.969C134.748 193.942 134.905 193.883 135.046 193.795C135.187 193.708 135.309 193.593 135.406 193.458C135.503 193.323 135.572 193.17 135.609 193.008C135.647 192.846 135.652 192.679 135.625 192.515C134.651 186.644 133.803 180.955 135.429 176.957C137.055 172.96 141.429 169.91 146.062 166.79C146.34 166.602 146.532 166.312 146.595 165.983C146.659 165.654 146.589 165.313 146.402 165.035C146.215 164.757 145.925 164.564 145.596 164.5Z" fill="white"/>
<path fill-rule="evenodd" clip-rule="evenodd" d="M134.922 196.031C133.1 196.334 131.376 195.1 131.074 193.278C130.772 191.456 132.005 189.733 133.827 189.43C135.649 189.128 137.379 190.401 137.675 192.183C137.977 194.005 136.744 195.729 134.922 196.031Z" fill="white"/>
<path fill-rule="evenodd" clip-rule="evenodd" d="M133.755 188.989C131.695 189.331 130.296 191.292 130.637 193.352C130.979 195.412 132.936 196.816 134.996 196.474C137.056 196.132 138.46 194.171 138.118 192.111C137.782 190.085 135.821 188.646 133.755 188.989ZM133.903 189.873C135.48 189.611 136.983 190.716 137.238 192.255C137.501 193.839 136.436 195.327 134.852 195.59C133.268 195.853 131.78 194.788 131.517 193.204C131.254 191.62 132.319 190.136 133.903 189.873Z" fill="white"/>
<path fill-rule="evenodd" clip-rule="evenodd" d="M133.036 179.614C131.325 178.919 130.502 176.966 131.197 175.255C131.893 173.544 133.846 172.72 135.557 173.416C137.268 174.112 138.076 176.102 137.396 177.776C136.7 179.486 134.747 180.31 133.036 179.614Z" fill="white"/>
<path fill-rule="evenodd" clip-rule="evenodd" d="M135.729 173.006C133.795 172.219 131.574 173.153 130.787 175.087C130 177.021 130.934 179.242 132.868 180.029C134.803 180.816 137.024 179.878 137.81 177.943C138.584 176.041 137.669 173.795 135.729 173.006ZM135.389 173.829C136.871 174.431 137.571 176.163 136.983 177.608C136.378 179.095 134.695 179.807 133.208 179.202C131.721 178.597 131.009 176.909 131.614 175.422C132.219 173.935 133.902 173.224 135.389 173.829Z" fill="white"/>
<path d="M112.229 142.324C112.066 142.292 111.898 142.293 111.735 142.327C111.572 142.361 111.417 142.426 111.28 142.519C111.003 142.708 110.812 142.998 110.749 143.327C110.686 143.657 110.756 143.997 110.945 144.274C115.788 151.434 120.63 158.59 125.47 165.745C125.658 166.023 125.948 166.215 126.277 166.278C126.607 166.342 126.947 166.272 127.225 166.085C127.502 165.896 127.693 165.606 127.756 165.277C127.819 164.948 127.749 164.607 127.56 164.33C122.72 157.175 117.879 150.019 113.035 142.859C112.848 142.581 112.558 142.388 112.229 142.324Z" fill="white"/>
<path fill-rule="evenodd" clip-rule="evenodd" d="M128.382 167.839C126.853 168.874 124.771 168.473 123.737 166.943C122.702 165.413 123.103 163.332 124.633 162.297C126.163 161.262 128.266 161.697 129.279 163.194C130.313 164.723 129.912 166.804 128.382 167.839Z" fill="white"/>
<path fill-rule="evenodd" clip-rule="evenodd" d="M127.236 161.356C126.28 161.168 125.251 161.34 124.383 161.926C122.654 163.096 122.199 165.461 123.369 167.191C124.539 168.92 126.904 169.38 128.633 168.21C130.363 167.039 130.818 164.675 129.648 162.945C129.073 162.095 128.191 161.544 127.236 161.356ZM127.066 162.235C127.798 162.38 128.475 162.796 128.912 163.442C129.811 164.771 129.462 166.57 128.133 167.469C126.803 168.369 125.009 168.024 124.109 166.694C123.21 165.365 123.554 163.566 124.884 162.667C125.546 162.219 126.334 162.091 127.066 162.235Z" fill="white"/>
<path d="M110.564 157.12C110.236 157.053 109.894 157.119 109.615 157.303C105.7 159.877 101.545 162.574 99.0295 167.262C96.5136 171.949 95.7968 178.183 95.0409 184.308C95.0204 184.473 95.0326 184.641 95.0769 184.801C95.1211 184.961 95.1966 185.111 95.2989 185.242C95.4013 185.374 95.5285 185.483 95.6733 185.565C95.818 185.647 95.9775 185.699 96.1426 185.719C96.4745 185.76 96.8088 185.667 97.0723 185.461C97.3359 185.255 97.5074 184.954 97.549 184.622C98.3048 178.496 99.103 172.476 101.259 168.459C103.415 164.442 107.089 161.989 111.004 159.415C111.284 159.231 111.479 158.943 111.547 158.615C111.615 158.286 111.549 157.945 111.365 157.665C111.274 157.526 111.156 157.406 111.019 157.313C110.881 157.219 110.727 157.154 110.564 157.12Z" fill="white"/>
<path fill-rule="evenodd" clip-rule="evenodd" d="M95.9031 187.815C94.0702 187.589 92.7661 185.918 92.9923 184.085C93.2184 182.252 94.8895 180.948 96.7224 181.174C98.5553 181.4 99.8545 183.111 99.6332 184.904C99.4071 186.737 97.736 188.041 95.9031 187.815Z" fill="white"/>
<path fill-rule="evenodd" clip-rule="evenodd" d="M96.7811 180.735C94.7087 180.479 92.8088 181.959 92.5531 184.031C92.2974 186.103 93.7812 188.003 95.8536 188.259C97.926 188.515 99.8259 187.035 100.082 184.963C100.333 182.925 98.8599 180.991 96.7811 180.735ZM96.6722 181.619C98.2592 181.814 99.3844 183.306 99.1934 184.854C98.9967 186.447 97.5558 187.572 95.9625 187.375C94.3691 187.178 93.2404 185.733 93.437 184.14C93.6336 182.546 95.0789 181.422 96.6722 181.619Z" fill="white"/>
<path fill-rule="evenodd" clip-rule="evenodd" d="M98.6154 170.824C96.9882 169.951 96.3762 167.921 97.2496 166.294C98.1229 164.667 100.152 164.055 101.78 164.928C103.407 165.802 104 167.866 103.145 169.458C102.272 171.086 100.243 171.697 98.6154 170.824Z" fill="white"/>
<path fill-rule="evenodd" clip-rule="evenodd" d="M99.1057 164.25C98.1756 164.531 97.3526 165.168 96.8589 166.088C95.8714 167.928 96.5647 170.234 98.4046 171.222C100.245 172.209 102.551 171.511 103.538 169.672C104.509 167.862 103.838 165.528 101.993 164.538C101.073 164.044 100.036 163.97 99.1057 164.25ZM99.3626 165.1C100.072 164.885 100.863 164.946 101.57 165.326C102.979 166.082 103.492 167.875 102.755 169.249C101.995 170.664 100.242 171.193 98.827 170.434C97.4124 169.674 96.8834 167.921 97.6426 166.506C98.0222 165.799 98.6528 165.314 99.3626 165.1Z" fill="white"/>
<path d="M111.112 173.012C110.783 173.074 110.491 173.263 110.302 173.539C110.208 173.676 110.141 173.83 110.107 173.993C110.072 174.155 110.07 174.323 110.1 174.486C110.131 174.65 110.193 174.806 110.284 174.945C110.374 175.084 110.491 175.204 110.628 175.298C114.545 177.986 118.18 180.582 119.442 184.002C120.704 187.423 119.833 192.451 118.828 197.636C118.764 197.965 118.834 198.306 119.022 198.583C119.21 198.861 119.5 199.052 119.829 199.116C120.158 199.18 120.499 199.11 120.777 198.922C121.054 198.734 121.246 198.444 121.309 198.115C122.315 192.93 123.453 187.58 121.81 183.127C120.167 178.674 115.977 175.901 112.061 173.212C111.924 173.118 111.769 173.052 111.606 173.018C111.443 172.983 111.275 172.981 111.112 173.012Z" fill="white"/>
<path fill-rule="evenodd" clip-rule="evenodd" d="M119.44 201.17C117.627 200.818 116.441 199.061 116.792 197.248C117.144 195.435 118.9 194.249 120.713 194.601C122.527 194.952 123.705 196.748 123.361 198.522C123.009 200.335 121.253 201.521 119.44 201.17Z" fill="white"/>
<path fill-rule="evenodd" clip-rule="evenodd" d="M120.803 194.166C118.753 193.769 116.755 195.116 116.358 197.166C115.96 199.216 117.308 201.214 119.358 201.612C121.408 202.01 123.406 200.662 123.803 198.612C124.194 196.596 122.86 194.565 120.803 194.166ZM120.634 195.041C122.203 195.346 123.225 196.911 122.928 198.442C122.623 200.018 121.103 201.042 119.527 200.737C117.951 200.431 116.927 198.912 117.233 197.336C117.538 195.76 119.057 194.736 120.634 195.041Z" fill="white"/>
<path fill-rule="evenodd" clip-rule="evenodd" d="M121.788 186.706C120.055 187.345 118.13 186.458 117.491 184.725C116.851 182.992 117.739 181.067 119.471 180.428C121.204 179.789 123.143 180.714 123.768 182.409C124.408 184.141 123.52 186.066 121.788 186.706Z" fill="white"/>
<path fill-rule="evenodd" clip-rule="evenodd" d="M119.321 180.014C117.362 180.737 116.352 182.923 117.075 184.882C117.797 186.841 119.988 187.851 121.947 187.129C123.906 186.406 124.912 184.215 124.189 182.256C123.479 180.33 121.286 179.289 119.321 180.014ZM119.631 180.85C121.131 180.296 122.813 181.102 123.353 182.565C123.909 184.072 123.144 185.737 121.638 186.293C120.132 186.848 118.466 186.079 117.911 184.573C117.355 183.066 118.124 181.406 119.631 180.85Z" fill="white"/>
<path d="M81.0177 145.57C80.7162 145.425 80.3695 145.406 80.0536 145.516C79.7377 145.626 79.4785 145.857 79.3326 146.158C79.2601 146.308 79.2179 146.47 79.2082 146.636C79.1985 146.802 79.2216 146.968 79.2762 147.125C79.3308 147.282 79.4158 147.426 79.5263 147.55C79.6369 147.674 79.7708 147.775 79.9204 147.847C85.451 150.505 90.9807 153.16 96.5058 155.816C96.8079 155.96 97.1549 155.979 97.4709 155.868C97.7868 155.757 98.0458 155.525 98.1909 155.224C98.3359 154.922 98.3554 154.575 98.2452 154.26C98.135 153.944 97.9042 153.684 97.6031 153.538C92.078 150.883 86.5483 148.228 81.0177 145.57Z" fill="white"/>
<path fill-rule="evenodd" clip-rule="evenodd" d="M100.055 156.116C99.255 157.78 97.2547 158.482 95.5902 157.682C93.9256 156.882 93.224 154.882 94.024 153.217C94.8239 151.553 96.8603 150.869 98.4886 151.651C100.153 152.451 100.855 154.451 100.055 156.116Z" fill="white"/>
<path fill-rule="evenodd" clip-rule="evenodd" d="M95.8057 151.098C94.8855 151.417 94.0823 152.083 93.6286 153.027C92.7241 154.909 93.5232 157.182 95.4051 158.087C97.2872 158.991 99.5603 158.197 100.465 156.315C101.369 154.432 100.57 152.159 98.6883 151.255C97.7629 150.81 96.726 150.779 95.8057 151.098ZM96.0975 151.943C96.8025 151.699 97.5978 151.718 98.3007 152.056C99.7477 152.751 100.355 154.48 99.6593 155.927C98.9639 157.374 97.2353 157.981 95.7883 157.286C94.3413 156.59 93.7387 154.862 94.4341 153.415C94.7804 152.694 95.3925 152.186 96.0975 151.943Z" fill="white"/>
<path d="M61.1783 152.532C55.4946 155.619 49.723 158.688 46.2736 162.577C42.8244 166.465 42.0804 170.914 41.3794 175.021C41.3229 175.352 41.3999 175.691 41.5935 175.964C41.787 176.238 42.0811 176.423 42.4114 176.48C42.7416 176.537 43.0808 176.46 43.3543 176.266C43.6279 176.073 43.8134 175.778 43.8701 175.448C44.571 171.34 45.2259 167.565 48.1634 164.253C51.1007 160.942 56.7008 157.84 62.3845 154.752C62.5303 154.673 62.6591 154.565 62.7634 154.436C62.8678 154.307 62.9456 154.158 62.9926 153.999C63.0395 153.84 63.0546 153.673 63.0369 153.508C63.0192 153.342 62.9691 153.182 62.8895 153.037C62.7292 152.743 62.459 152.525 62.1383 152.431C61.8176 152.336 61.4723 152.372 61.1783 152.532Z" fill="white"/>
<path fill-rule="evenodd" clip-rule="evenodd" d="M42.0332 178.532C40.2127 178.221 38.9875 176.491 39.2982 174.671C39.6088 172.851 41.3384 171.625 43.1589 171.936C44.9794 172.247 46.198 174.016 45.8941 175.797C45.5834 177.617 43.8537 178.842 42.0332 178.532Z" fill="white"/>
<path fill-rule="evenodd" clip-rule="evenodd" d="M43.2379 171.5C41.1795 171.148 39.2131 172.541 38.8618 174.6C38.5106 176.658 39.9037 178.625 41.9621 178.976C44.0205 179.327 45.9869 177.934 46.3381 175.876C46.6835 173.851 45.3026 171.852 43.2379 171.5ZM43.0898 172.379C44.666 172.648 45.721 174.19 45.4586 175.728C45.1885 177.31 43.697 178.366 42.1145 178.096C40.5319 177.826 39.4713 176.335 39.7414 174.752C40.0115 173.17 41.5073 172.109 43.0898 172.379Z" fill="white"/>
<path fill-rule="evenodd" clip-rule="evenodd" d="M44.9678 165.913C43.5862 164.688 43.4596 162.572 44.6851 161.19C45.9106 159.809 48.0265 159.682 49.408 160.908C50.7896 162.133 50.8897 164.279 49.6908 165.631C48.4653 167.012 46.3493 167.139 44.9678 165.913Z" fill="white"/>
<path fill-rule="evenodd" clip-rule="evenodd" d="M46.9618 159.63C45.9921 159.688 45.0464 160.116 44.3536 160.897C42.9679 162.459 43.1093 164.863 44.6714 166.248C46.2336 167.634 48.6415 167.493 50.0272 165.931C51.3898 164.394 51.2719 161.965 49.705 160.575C48.9239 159.882 47.9315 159.572 46.9618 159.63ZM47.0139 160.518C47.7539 160.474 48.5122 160.713 49.1127 161.245C50.3088 162.306 50.3917 164.171 49.3565 165.338C48.2912 166.539 46.4645 166.648 45.2635 165.582C44.0625 164.517 43.9543 162.69 45.0197 161.489C45.5523 160.889 46.2739 160.562 47.0139 160.518Z" fill="white"/>
<path d="M101.034 116.186C100.813 116.353 100.628 116.562 100.488 116.801C100.349 117.04 100.257 117.304 100.22 117.578C100.182 117.853 100.199 118.131 100.269 118.399C100.339 118.667 100.462 118.918 100.629 119.138C101.809 120.69 103 122.261 104.099 123.506C105.198 124.75 106.814 126.016 109.446 126.493C110.762 126.731 112.258 126.849 113.618 127.037C114.978 127.225 116.21 127.553 116.566 127.755C116.923 127.958 117.076 128.246 117.672 129.079C118.267 129.912 119.431 131.107 121.199 131.609C122.964 132.11 124.968 132.12 127.055 132.175C129.142 132.23 131.267 132.291 132.676 132.55C135.495 133.067 136.26 134.149 137.688 135.841C138.048 136.268 138.563 136.534 139.119 136.581C139.674 136.628 140.226 136.453 140.653 136.094C140.865 135.916 141.04 135.697 141.167 135.452C141.294 135.206 141.372 134.937 141.395 134.661C141.419 134.386 141.387 134.108 141.303 133.844C141.22 133.58 141.084 133.336 140.906 133.124C139.478 131.432 137.387 129.129 133.438 128.404C131.463 128.042 129.233 128.019 127.168 127.964C125.104 127.91 123.16 127.786 122.348 127.555C121.538 127.325 121.504 127.194 121.103 126.632C120.701 126.07 120.06 124.891 118.647 124.089C117.232 123.287 115.714 123.071 114.197 122.861C112.68 122.651 111.17 122.523 110.2 122.347C108.26 121.996 108.183 121.768 107.256 120.719C106.33 119.67 105.166 118.139 103.986 116.587C103.819 116.367 103.609 116.182 103.37 116.042C103.131 115.903 102.867 115.812 102.593 115.775C102.319 115.738 102.04 115.755 101.772 115.826C101.505 115.896 101.254 116.019 101.034 116.186Z" fill="white"/>
<path d="M157.152 88.8885C156.909 88.7868 156.648 88.7341 156.384 88.7334C156.12 88.7327 155.859 88.7839 155.615 88.8842C155.371 88.9845 155.15 89.1319 154.963 89.3179C154.776 89.5039 154.628 89.7249 154.526 89.9683C153.747 91.8432 153.54 92.8515 150.834 93.9917C148.128 95.1317 142.459 96.0351 138.376 96.9177C134.293 97.8004 131.837 98.7446 129.559 99.6261C129.063 99.8185 128.664 100.2 128.449 100.687C128.234 101.173 128.222 101.725 128.414 102.221C128.509 102.467 128.651 102.692 128.833 102.883C129.014 103.074 129.232 103.227 129.473 103.334C129.714 103.44 129.974 103.499 130.237 103.505C130.501 103.511 130.763 103.466 131.009 103.371C133.287 102.489 135.388 101.671 139.225 100.841C143.063 100.011 148.679 99.2534 152.393 97.6884C156.106 96.1237 157.452 93.3846 158.232 91.5097C158.436 91.0189 158.437 90.4672 158.234 89.9757C158.032 89.4843 157.642 89.0932 157.152 88.8885Z" fill="white"/>
<path d="M145.789 62.5192C145.27 62.4019 144.726 62.4951 144.277 62.7784C143.827 63.0616 143.508 63.5119 143.39 64.0302C142.871 66.3131 142.545 67.8729 140.738 69.2945C138.93 70.7163 134.873 72.1749 132.125 73.3788C129.377 74.5827 128.035 75.6989 127.026 76.5705C126.827 76.7426 126.663 76.9523 126.544 77.1877C126.426 77.4231 126.355 77.6795 126.336 77.9424C126.316 78.2052 126.349 78.4693 126.431 78.7195C126.514 78.9697 126.645 79.2012 126.817 79.4008C126.989 79.6004 127.199 79.7641 127.435 79.8826C127.67 80.0012 127.926 80.0721 128.189 80.0915C128.452 80.1109 128.716 80.0784 128.966 79.9957C129.217 79.913 129.448 79.7818 129.648 79.6097C130.657 78.7381 131.331 78.1118 133.736 77.0581C136.142 76.0042 140.368 74.6902 143.22 72.4469C146.072 70.2034 146.786 67.2012 147.304 64.9183C147.362 64.6613 147.369 64.3953 147.324 64.1357C147.28 63.876 147.184 63.6277 147.044 63.4049C146.903 63.1821 146.72 62.9892 146.504 62.8372C146.289 62.6853 146.046 62.5773 145.789 62.5192Z" fill="white"/>
<path d="M78.8343 132.168C79.3116 131.289 81.6731 128.56 83.7384 127.485C88.8535 124.825 89.3886 123.322 87.4756 116.99C86.4851 113.711 86.3874 112.98 86.574 110.246C86.6654 108.92 89.4878 104.872 92.246 102.114C95.1923 99.1674 96.0879 98.9787 105.235 99.3761C117.402 99.9048 119.109 99.6683 121.397 97.1361C123.351 94.973 124.242 91.7731 123.696 88.8769C123.053 85.4608 121.679 82.2353 120.264 80.8203C118.66 79.2168 117.218 78.8372 108.073 77.6118C101.888 76.7831 100.821 76.5329 99.4662 75.5941C98.6154 75.0047 94.983 71.4981 91.3939 67.8018L84.1765 60.1486L89.1271 60.002L93.2311 60.0927L96.1418 63.8789C97.5301 65.6849 99.1103 67.2849 99.2763 67.7543C99.4413 68.2237 100.152 68.8884 100.853 69.2314C101.554 69.5744 102.911 70.2642 103.869 70.7643C105.481 71.6056 106.262 71.6926 114.313 71.9269C119.274 72.0714 123.474 72.3716 124.084 72.6254C124.672 72.8704 126.313 73.8034 127.731 74.6988C129.579 75.8656 130.373 76.6236 130.534 77.3743C130.659 77.9504 132.036 82.7703 133.596 88.0853L136.434 97.7488L135.237 99.9084C134.426 101.372 133.597 102.284 132.665 102.739C131.909 103.108 127.035 104.647 121.832 106.16C103.026 111.627 103.13 111.558 103.9 117.913C104.467 122.596 105.296 125.345 106.37 126.1C107.31 126.761 108.249 127.037 113.069 128.07C115.839 128.664 117.422 131.957 118.31 133.264C118.849 134.058 104.319 133.828 104.319 133.828L101.623 130.739C99.4559 128.255 99.0218 126.686 98.9973 123.941C98.975 121.65 98.5926 120.583 98.2667 119.558C98.0482 118.87 97.3982 121.642 97.3982 124.532C97.3982 127.401 97.514 127.872 98.6789 129.76C99.3833 130.901 98.9194 133.177 98.9194 133.282C98.9194 133.387 77.9195 133.855 78.0524 133.61L78.8343 132.168Z" fill="white"/>
<path d="M134.789 64.6893C142.094 65.5578 155.857 65.829 162.692 65.7005C169.528 65.5721 169.436 65.0415 169.727 63.7997C170.018 62.5579 170.692 60.6063 169.929 57.8766C169.165 55.1469 166.96 51.6381 164.243 50.8328C161.525 50.0274 158.296 51.9284 156.492 51.5196C154.688 51.1107 154.31 48.389 151.602 47.0759C148.893 45.7629 143.854 45.8611 140.929 47.475C138.004 49.0889 137.197 52.2168 135.29 53.5039C133.383 54.7911 130.373 54.2384 128.606 55.1619C126.838 56.0855 126.315 58.4839 126.477 60.418C126.639 62.3521 127.484 63.8207 134.789 64.6893Z" fill="white"/>
<path d="M66.214 61.4542C76.5263 61.6281 97.1484 61.9757 107.753 61.0679C118.357 60.1601 118.946 57.9954 118.652 54.9081C118.358 51.8208 117.18 47.81 114.913 45.798C112.646 43.786 109.289 43.7756 108.345 42.6672C107.402 41.5587 108.875 39.3519 105.996 36.5884C103.117 33.8249 95.8826 30.504 90.3926 30.4309C84.9026 30.3578 81.1597 33.5339 77.5888 34.2413C74.0177 34.9487 70.6166 33.186 67.5585 33.9951C64.5005 34.8043 61.7886 38.1865 61.1308 41.1947C60.473 44.203 61.8675 46.8348 61.1941 48.6058C60.5208 50.3768 57.78 51.2899 56.553 53.2608C55.3259 55.2316 55.6139 58.2572 55.7578 59.7688C55.9016 61.2804 55.9017 61.2803 66.214 61.4542Z" fill="white"/>
<path d="M149.644 89.4645C153.906 90.4244 161.033 90.7542 165.634 90.1867C170.234 89.6191 172.31 88.1548 172.91 85.8334C173.509 83.512 172.631 80.3307 171.009 79.2092C169.387 78.0877 167.021 79.0293 166.188 78.505C165.356 77.9807 166.059 75.989 164.351 74.7455C162.642 73.5019 158.521 73.0075 156.29 73.8147C154.058 74.6219 153.72 76.7291 152.386 77.2598C151.053 77.7906 148.72 76.7456 146.919 77.8262C145.117 78.9069 143.85 82.1131 143.917 84.5129C143.983 86.9127 145.381 88.5047 149.644 89.4645Z" fill="white"/>
<path d="M57.7113 97.0173C64.4339 98.1683 76.2206 96.849 82.4448 95.4052C88.6691 93.9614 89.3336 92.3918 89.1458 89.9495C88.9581 87.5072 87.9167 84.1908 86.0993 82.7536C84.2819 81.3164 81.6878 81.7614 80.3062 80.8054C78.9246 79.8495 78.7574 77.4898 76.2392 76.2674C73.7209 75.045 68.8494 74.9623 66.2032 76.5063C63.5571 78.0503 63.1387 81.219 61.6327 81.9234C60.1268 82.6278 57.5307 80.868 55.0211 81.5722C52.5115 82.2763 50.0914 85.4459 49.7111 88.844C49.3308 92.2421 50.9887 95.8663 57.7113 97.0173Z" fill="white"/>
<path d="M79.3094 137.241C79.7055 137.582 82.3043 136.245 83.9554 136.383C85.6066 136.52 86.3095 138.129 87.52 137.973C88.7305 137.818 90.4499 135.902 89.7042 134.756C88.9584 133.611 85.7447 133.236 83.2328 134.058C80.7209 134.88 78.9133 136.9 79.3094 137.241Z" fill="white"/>
<path d="M97.9427 133.956C99.0124 134.848 98.4188 136.434 97.2507 137.033C96.0825 137.631 94.3365 137.242 93.0454 137.306C91.7543 137.37 90.92 137.888 90.7214 137.192C90.5228 136.497 90.9611 134.586 92.5494 133.727C94.1377 132.869 96.8731 133.064 97.9427 133.956Z" fill="white"/>
<path d="M121.214 137.162C120.33 137.071 118.56 136.889 117.153 136.828C115.745 136.768 114.701 136.83 113.936 137.172C113.172 137.513 112.69 138.132 112.065 137.863C111.44 137.594 110.674 136.438 110.533 135.351C110.392 134.264 110.88 133.255 112.911 133.585C114.941 133.914 118.524 135.586 120.311 136.42C122.098 137.253 122.098 137.254 121.214 137.162Z" fill="white"/>
<path d="M116.712 131.715C116.546 131.706 116.38 131.73 116.223 131.787C116.066 131.843 115.921 131.929 115.798 132.041C115.675 132.152 115.575 132.287 115.503 132.437C115.432 132.587 115.391 132.749 115.383 132.915C115.374 133.081 115.398 133.246 115.454 133.403C115.51 133.559 115.595 133.703 115.707 133.826C118.655 137.096 121.677 140.479 125.643 142.774C127.626 143.922 129.725 144.736 131.482 145.6C133.24 146.465 134.6 147.369 135.301 148.483C136.702 150.711 136.087 155.239 135.218 159.987C135.188 160.15 135.191 160.318 135.225 160.48C135.26 160.642 135.326 160.796 135.421 160.933C135.515 161.07 135.635 161.186 135.774 161.276C135.914 161.367 136.069 161.429 136.233 161.459C136.396 161.489 136.564 161.486 136.727 161.451C136.889 161.416 137.043 161.349 137.18 161.255C137.317 161.16 137.433 161.039 137.523 160.899C137.613 160.76 137.675 160.603 137.704 160.44C138.573 155.692 139.693 150.722 137.439 147.137C136.311 145.345 134.494 144.265 132.597 143.332C130.699 142.398 128.665 141.6 126.91 140.584C123.401 138.553 120.532 135.403 117.583 132.133C117.36 131.883 117.047 131.733 116.712 131.715Z" fill="white"/>
<path fill-rule="evenodd" clip-rule="evenodd" d="M135.833 163.496C134.016 163.163 132.812 161.419 133.144 159.602C133.476 157.786 135.221 156.581 137.037 156.914C138.854 157.246 140.051 159.03 139.726 160.807C139.394 162.623 137.649 163.828 135.833 163.496Z" fill="white"/>
<path fill-rule="evenodd" clip-rule="evenodd" d="M137.119 156.473C135.065 156.097 133.084 157.467 132.709 159.521C132.333 161.575 133.703 163.561 135.757 163.936C137.811 164.312 139.792 162.943 140.167 160.888C140.537 158.869 139.18 156.85 137.119 156.473ZM136.958 157.353C138.531 157.641 139.569 159.193 139.288 160.727C138.999 162.307 137.492 163.346 135.913 163.057C134.334 162.768 133.295 161.262 133.584 159.682C133.873 158.103 135.379 157.064 136.958 157.353Z" fill="white"/>
<path fill-rule="evenodd" clip-rule="evenodd" d="M138.117 150.633C136.554 151.617 134.487 151.146 133.504 149.583C132.521 148.019 132.991 145.953 134.555 144.969C136.118 143.986 138.206 144.491 139.168 146.02C140.151 147.583 139.681 149.65 138.117 150.633Z" fill="white"/>
<path fill-rule="evenodd" clip-rule="evenodd" d="M137.189 144.121C136.24 143.901 135.206 144.038 134.319 144.596C132.552 145.708 132.014 148.058 133.126 149.825C134.238 151.593 136.588 152.13 138.356 151.018C140.123 149.907 140.661 147.557 139.549 145.789C139.002 144.92 138.138 144.341 137.189 144.121ZM136.989 144.992C137.715 145.161 138.376 145.603 138.791 146.264C139.646 147.623 139.24 149.406 137.881 150.261C136.522 151.116 134.739 150.71 133.884 149.351C133.029 147.992 133.435 146.208 134.794 145.354C135.471 144.928 136.262 144.823 136.989 144.992Z" fill="white"/>
<path fill-rule="evenodd" clip-rule="evenodd" d="M129.133 143.341C128.208 144.939 126.159 145.486 124.561 144.56C122.963 143.635 122.417 141.587 123.342 139.989C124.267 138.39 126.35 137.864 127.914 138.77C129.512 139.695 130.058 141.743 129.133 143.341Z" fill="white"/>
<path fill-rule="evenodd" clip-rule="evenodd" d="M125.274 138.013C124.332 138.26 123.483 138.861 122.958 139.768C121.912 141.575 122.531 143.903 124.338 144.949C126.145 145.996 128.474 145.376 129.52 143.569C130.566 141.762 129.947 139.434 128.14 138.387C127.251 137.873 126.216 137.766 125.274 138.013ZM125.505 138.875C126.227 138.686 127.016 138.767 127.691 139.158C129.08 139.963 129.553 141.731 128.749 143.121C127.945 144.51 126.176 144.983 124.787 144.179C123.397 143.374 122.924 141.606 123.729 140.216C124.129 139.524 124.784 139.064 125.505 138.875Z" fill="white"/>
</svg>
