<svg width="32" height="32" viewBox="0 0 32 32" fill="none"  xmlns="http://www.w3.org/2000/svg">
<g id="logo_dark.svg" clip-path="url(#clip0_1861_4408)">
<g id="layer1">
<g id="g14957">
<path id="path5573" d="M14.7501 5.62153C14.7005 5.62911 14.653 5.64637 14.6101 5.67234C14.5672 5.69831 14.5299 5.73247 14.5003 5.77288C14.4706 5.81328 14.4492 5.85913 14.4373 5.90781C14.4254 5.95649 14.4232 6.00704 14.4309 6.05656C14.4607 6.25007 14.4756 6.40258 14.4585 6.4916C14.4413 6.58083 14.3893 6.68508 14.2394 6.86358C14.0895 7.0421 13.8083 7.30043 13.6625 7.69031C13.5167 8.08002 13.5712 8.45235 13.605 8.76449C13.6103 8.81427 13.6255 8.86251 13.6495 8.90644C13.6735 8.95038 13.7059 8.98915 13.745 9.02055C13.784 9.05194 13.8288 9.07534 13.8768 9.08942C13.9249 9.1035 13.9752 9.10797 14.025 9.10259C14.0748 9.09721 14.123 9.08208 14.167 9.05805C14.2109 9.03403 14.2497 9.00159 14.2811 8.96258C14.3125 8.92358 14.3359 8.87877 14.3499 8.83072C14.364 8.78266 14.3685 8.73231 14.3631 8.68253C14.3293 8.37039 14.3163 8.11861 14.3765 7.95747C14.4367 7.79651 14.6352 7.57867 14.8234 7.35457C15.0116 7.13046 15.1556 6.90432 15.2072 6.63582C15.2588 6.36711 15.2141 6.13432 15.1843 5.94071C15.169 5.84083 15.1147 5.7511 15.0333 5.69125C14.9519 5.6314 14.85 5.60632 14.7501 5.62153Z" fill="#0C0A09"/>
<path id="path5575" d="M9.81612 12.633C9.76886 12.6164 9.71878 12.6092 9.66875 12.6119C9.61871 12.6146 9.56971 12.6271 9.52452 12.6488C9.47939 12.6705 9.43897 12.7009 9.40559 12.7383C9.37221 12.7756 9.34653 12.8192 9.32998 12.8665C9.31344 12.9137 9.30638 12.9638 9.3092 13.0138C9.31202 13.0638 9.32466 13.1128 9.34641 13.1579C9.78 14.0589 10.2116 14.9577 10.512 15.4994C10.8124 16.041 11.0106 16.2473 11.1535 16.3868C11.226 16.4573 11.3235 16.4962 11.4245 16.4948C11.5256 16.4935 11.622 16.4521 11.6926 16.3797C11.7632 16.3073 11.8022 16.2099 11.8011 16.1088C11.7999 16.0078 11.7586 15.9113 11.6863 15.8406C11.5433 15.7012 11.4553 15.6276 11.1788 15.129C10.9023 14.6304 10.4672 13.7279 10.0336 12.8269C9.98966 12.736 9.91144 12.6663 9.81612 12.633Z" fill="#0C0A09"/>
<path id="path5577" d="M6.13364 19.623C6.07304 19.6229 6.01485 19.6468 5.97185 19.6895C5.92886 19.7322 5.90456 19.7902 5.9043 19.8508C5.90422 19.8809 5.91009 19.9107 5.92154 19.9385C5.93299 19.9663 5.94979 19.9916 5.97102 20.0129C5.99224 20.0342 6.01748 20.0511 6.04525 20.0626C6.07301 20.0742 6.10278 20.0801 6.13285 20.0801L22.4931 20.1085C22.5537 20.1087 22.6119 20.0848 22.6549 20.0421C22.6979 19.9994 22.7222 19.9413 22.7224 19.8808C22.7225 19.8507 22.7167 19.8209 22.7052 19.7931C22.6938 19.7653 22.677 19.74 22.6557 19.7187C22.6345 19.6974 22.6093 19.6805 22.5815 19.6689C22.5537 19.6574 22.524 19.6514 22.4939 19.6514L6.13364 19.623Z" fill="#0C0A09"/>
<g id="path5579">
<path id="path96265" d="M10.341 19.4639C10.2603 19.4654 10.1835 19.4989 10.1274 19.5569C8.89316 20.839 7.62791 22.1075 7.2532 23.3469C7.06584 23.9666 7.13428 24.5356 7.23507 25.0319C7.33585 25.5282 7.46034 25.9609 7.45025 26.3338C7.43003 27.0797 6.87021 27.8871 6.25546 28.7297C6.20801 28.795 6.18842 28.8765 6.20098 28.9563C6.21354 29.0361 6.25724 29.1076 6.32247 29.1552C6.38772 29.2028 6.46915 29.2225 6.54893 29.2101C6.6287 29.1977 6.70029 29.1542 6.74802 29.089C7.36278 28.2465 8.03266 27.3688 8.06024 26.3504C8.074 25.8411 7.92685 25.3714 7.83326 24.9105C7.73967 24.4496 7.69122 24.0062 7.83728 23.5235C8.12918 22.558 9.33223 21.2623 10.5665 19.9801C10.6226 19.9219 10.6533 19.8438 10.6518 19.763C10.6503 19.6821 10.6168 19.6052 10.5586 19.549C10.5297 19.5213 10.4957 19.4994 10.4583 19.4848C10.421 19.4702 10.3811 19.4631 10.341 19.4639Z" fill="#0C0A09"/>
<g id="g96239">
<g id="path96257">
<path id="path96261" fill-rule="evenodd" clip-rule="evenodd" d="M6.02676 29.5611C5.66672 29.2984 5.58772 28.793 5.85042 28.433C6.11311 28.073 6.61851 27.994 6.97854 28.2567C7.33857 28.5194 7.41186 29.0326 7.15488 29.3848C6.89218 29.7448 6.38678 29.8238 6.02676 29.5611Z" fill="#0C0A09"/>
<path id="path96263" fill-rule="evenodd" clip-rule="evenodd" d="M6.36144 28.0062C6.12981 28.0424 5.91178 28.166 5.76327 28.3695C5.46623 28.7766 5.55557 29.3516 5.96266 29.6486C6.36974 29.9457 6.94472 29.8555 7.24175 29.4485C7.53383 29.0482 7.44991 28.4681 7.04157 28.1702C6.83803 28.0216 6.59306 27.97 6.36144 28.0062ZM6.39454 28.2174C6.5713 28.1898 6.75818 28.2302 6.91466 28.3443C7.22638 28.5718 7.28947 29.0175 7.06758 29.3216C6.83921 29.6346 6.40249 29.7028 6.08952 29.4745C5.77654 29.2461 5.70907 28.8094 5.93744 28.4964C6.05162 28.3399 6.21778 28.2451 6.39454 28.2174Z" fill="#0C0A09"/>
</g>
<g id="path96249">
<path id="path96253" fill-rule="evenodd" clip-rule="evenodd" d="M7.73474 27.1487C7.28923 27.1366 6.93746 26.7652 6.94952 26.3197C6.96158 25.8742 7.33294 25.5224 7.77846 25.5345C8.22397 25.5465 8.5755 25.9276 8.56371 26.3634C8.55164 26.8089 8.18026 27.1607 7.73474 27.1487Z" fill="#0C0A09"/>
<path id="path96255" fill-rule="evenodd" clip-rule="evenodd" d="M7.78156 25.4271C7.27781 25.4135 6.85578 25.8131 6.84214 26.3169C6.8285 26.8206 7.22817 27.2426 7.73191 27.2563C8.23565 27.2699 8.65769 26.8703 8.67133 26.3665C8.68472 25.8712 8.28685 25.4408 7.78156 25.4271ZM7.77525 25.6422C8.16098 25.6527 8.46636 25.9839 8.45617 26.3602C8.44568 26.7475 8.12471 27.0516 7.73742 27.0411C7.35013 27.0306 7.04681 26.7097 7.05729 26.3224C7.06778 25.9351 7.38796 25.6318 7.77525 25.6422Z" fill="#0C0A09"/>
</g>
<g id="path96241">
<path id="path96245" fill-rule="evenodd" clip-rule="evenodd" d="M7.31217 24.2083C6.88556 24.0793 6.64402 23.6284 6.773 23.2018C6.90199 22.7752 7.35288 22.5337 7.77949 22.6627C8.2061 22.7916 8.44485 23.2518 8.31867 23.6692C8.18969 24.0958 7.73877 24.3373 7.31217 24.2083Z" fill="#0C0A09"/>
<path id="path96247" fill-rule="evenodd" clip-rule="evenodd" d="M7.81119 22.5597C7.32883 22.4138 6.81586 22.6881 6.67002 23.1704C6.52418 23.6528 6.79844 24.165 7.2808 24.3108C7.76316 24.4567 8.27613 24.1824 8.42197 23.7001C8.56538 23.2257 8.29505 22.706 7.81119 22.5597ZM7.74815 22.7654C8.11751 22.877 8.32444 23.2775 8.21549 23.6378C8.10336 24.0086 7.7147 24.2173 7.34385 24.1051C6.97299 23.993 6.76438 23.6036 6.8765 23.2327C6.98863 22.8619 7.37729 22.6532 7.74815 22.7654Z" fill="#0C0A09"/>
</g>
</g>
</g>
<g id="path5581">
<path id="path96295" d="M20.4262 19.7281C20.3952 19.7535 20.3695 19.7848 20.3506 19.8201C20.3317 19.8554 20.3199 19.8941 20.3159 19.934C20.312 19.9739 20.3159 20.0142 20.3276 20.0526C20.3392 20.0909 20.3583 20.1266 20.3837 20.1576C21.1311 21.0709 21.8342 21.967 21.9599 22.7607C22.0857 23.5546 21.6457 24.4691 21.6573 25.5144C21.6688 26.5595 22.1751 27.5503 22.6503 28.5092C22.6681 28.5451 22.6927 28.5772 22.7229 28.6035C22.7531 28.6299 22.7882 28.6501 22.8262 28.6629C22.8642 28.6757 22.9043 28.6809 22.9443 28.6782C22.9843 28.6755 23.0234 28.6649 23.0593 28.6471C23.1317 28.6112 23.1868 28.548 23.2127 28.4715C23.2385 28.3949 23.233 28.3113 23.1972 28.2388C22.722 27.28 22.2766 26.3525 22.2673 25.5073C22.2579 24.6622 22.7283 23.7152 22.562 22.6654C22.3957 21.6154 21.6032 20.6847 20.8558 19.7714C20.8304 19.7404 20.7992 19.7146 20.7639 19.6956C20.7286 19.6766 20.6899 19.6647 20.65 19.6607C20.6101 19.6567 20.5698 19.6606 20.5314 19.6721C20.493 19.6837 20.4573 19.7027 20.4262 19.7281Z" fill="#0C0A09"/>
<g id="g96269">
<g id="path96287">
<path id="path96291" fill-rule="evenodd" clip-rule="evenodd" d="M23.2832 29.0968C22.8839 29.2947 22.3991 29.1312 22.2012 28.7319C22.0033 28.3325 22.1668 27.8478 22.5662 27.6499C22.9655 27.452 23.4545 27.6242 23.6481 28.0148C23.846 28.4142 23.6825 28.8989 23.2832 29.0968Z" fill="#0C0A09"/>
<path id="path96293" fill-rule="evenodd" clip-rule="evenodd" d="M23.2183 27.5101C22.9959 27.4342 22.7442 27.4412 22.5177 27.5535C22.0662 27.7772 21.881 28.3282 22.1047 28.7798C22.3285 29.2313 22.8787 29.4173 23.3302 29.1935C23.7818 28.9698 23.9678 28.4188 23.744 27.9672C23.634 27.7452 23.4408 27.5861 23.2183 27.5101ZM23.149 27.7142C23.3193 27.7726 23.4673 27.8939 23.5509 28.0626C23.723 28.4097 23.582 28.8284 23.2349 29.0004C22.8877 29.1725 22.4691 29.0315 22.297 28.6844C22.125 28.3373 22.2667 27.9186 22.6139 27.7466C22.7867 27.6609 22.9787 27.6559 23.149 27.7142Z" fill="#0C0A09"/>
</g>
<g id="path96279">
<path id="path96283" fill-rule="evenodd" clip-rule="evenodd" d="M21.9706 26.3179C21.525 26.3228 21.1593 25.9651 21.1543 25.5194C21.1494 25.0738 21.5071 24.7081 21.9528 24.7032C22.3984 24.6983 22.7642 25.0656 22.769 25.5016C22.774 25.9472 22.4163 26.3129 21.9706 26.3179Z" fill="#0C0A09"/>
<path id="path96285" fill-rule="evenodd" clip-rule="evenodd" d="M21.9525 24.5948C21.4486 24.6004 21.0414 25.0161 21.0469 25.52C21.0525 26.0239 21.4683 26.4303 21.9722 26.4248C22.4761 26.4192 22.8825 26.0042 22.8769 25.5003C22.8714 25.0048 22.4579 24.5892 21.9525 24.5948ZM21.9549 24.8107C22.3407 24.8064 22.6576 25.1263 22.6618 25.5027C22.6661 25.8901 22.3573 26.2053 21.9699 26.2096C21.5824 26.2139 21.2672 25.9051 21.2629 25.5177C21.2586 25.1302 21.5675 24.815 21.9549 24.8107Z" fill="#0C0A09"/>
</g>
<g id="path96271">
<path id="path96275" fill-rule="evenodd" clip-rule="evenodd" d="M22.387 23.51C21.9468 23.5797 21.5329 23.2791 21.4632 22.8389C21.3934 22.3987 21.6941 21.9848 22.1343 21.9151C22.5745 21.8453 22.9899 22.1556 23.0581 22.5862C23.1278 23.0264 22.8271 23.4402 22.387 23.51Z" fill="#0C0A09"/>
<path id="path96277" fill-rule="evenodd" clip-rule="evenodd" d="M22.1175 21.809C21.6198 21.8879 21.2782 22.3579 21.357 22.8556C21.4359 23.3533 21.9067 23.695 22.4044 23.6161C22.9021 23.5373 23.2438 23.0673 23.1649 22.5695C23.0874 22.0801 22.6168 21.7299 22.1175 21.809ZM22.1514 22.0218C22.5326 21.9614 22.8932 22.2316 22.9521 22.6034C23.0128 22.9861 22.7532 23.3427 22.3705 23.4034C21.9879 23.464 21.6304 23.2044 21.5698 22.8217C21.5092 22.4391 21.7688 22.0824 22.1514 22.0218Z" fill="#0C0A09"/>
</g>
</g>
</g>
<g id="path5583">
<path id="path96333" d="M14.9183 19.5757C14.8782 19.578 14.839 19.5882 14.8029 19.6056C14.7668 19.6231 14.7345 19.6475 14.7078 19.6774C14.6812 19.7074 14.6607 19.7423 14.6476 19.7803C14.6345 19.8182 14.629 19.8583 14.6314 19.8983C14.6338 19.9384 14.6441 19.9776 14.6617 20.0136C14.6793 20.0497 14.7038 20.0819 14.7339 20.1085C15.3716 20.6737 15.934 21.2099 16.0216 21.7635C16.1093 22.3173 15.7184 23.173 15.6985 24.1657C15.6786 25.1583 16.0569 26.112 16.0555 27.028C16.0539 27.9442 15.6933 28.9439 15.3139 29.9708C15.2859 30.0467 15.2892 30.1306 15.323 30.204C15.3569 30.2775 15.4185 30.3345 15.4944 30.3625C15.5703 30.3905 15.6541 30.3872 15.7276 30.3534C15.801 30.3195 15.8581 30.2579 15.8861 30.182C16.2655 29.1551 16.6638 28.1004 16.6655 27.0296C16.6671 25.9588 16.2922 24.9927 16.3085 24.1783C16.3248 23.3639 16.7603 22.5258 16.6245 21.6681C16.4887 20.8103 15.7767 20.2174 15.139 19.6522C15.109 19.6256 15.0741 19.6051 15.0362 19.592C14.9984 19.5789 14.9583 19.5734 14.9183 19.5757Z" fill="#0C0A09"/>
<g id="g96299">
<g id="path96325">
<path id="path96329" fill-rule="evenodd" clip-rule="evenodd" d="M15.3207 30.8335C14.9026 30.679 14.6887 30.2144 14.8432 29.7963C14.9976 29.3782 15.4623 29.1643 15.8803 29.3188C16.2984 29.4732 16.509 29.9469 16.3579 30.3559C16.2034 30.774 15.7388 30.9879 15.3207 30.8335Z" fill="#0C0A09"/>
<path id="path96331" fill-rule="evenodd" clip-rule="evenodd" d="M15.918 29.2178C15.4453 29.0432 14.9168 29.2857 14.7421 29.7584C14.5675 30.2311 14.8108 30.7597 15.2835 30.9343C15.7562 31.1089 16.284 30.8656 16.4586 30.3929C16.6303 29.928 16.3921 29.393 15.918 29.2178ZM15.8431 29.4196C16.2051 29.5533 16.3873 29.9657 16.2569 30.3188C16.1226 30.6822 15.7218 30.8668 15.3584 30.7325C14.995 30.5983 14.8096 30.1967 14.9439 29.8333C15.0781 29.4699 15.4797 29.2853 15.8431 29.4196Z" fill="#0C0A09"/>
</g>
<g id="path96317">
<path id="path96321" fill-rule="evenodd" clip-rule="evenodd" d="M16.3589 27.8355C15.9132 27.8347 15.552 27.4725 15.5527 27.0268C15.5535 26.5812 15.9157 26.22 16.3614 26.2207C16.8071 26.2215 17.1682 26.5934 17.1675 27.0293C17.1667 27.475 16.8045 27.8362 16.3589 27.8355Z" fill="#0C0A09"/>
<path id="path96323" fill-rule="evenodd" clip-rule="evenodd" d="M16.3619 26.1133C15.858 26.1125 15.4462 26.5228 15.4453 27.0267C15.4445 27.5306 15.8548 27.9423 16.3587 27.9433C16.8626 27.9441 17.2744 27.5337 17.2753 27.0298C17.2761 26.5343 16.8673 26.1142 16.3619 26.1133ZM16.3611 26.3284C16.747 26.3292 17.0607 26.6526 17.0601 27.0291C17.0593 27.4165 16.7469 27.7287 16.3595 27.7281C15.972 27.7273 15.6598 27.4149 15.6604 27.0275C15.6612 26.64 15.9736 26.3278 16.3611 26.3284Z" fill="#0C0A09"/>
</g>
<g id="path96309">
<path id="path96313" fill-rule="evenodd" clip-rule="evenodd" d="M15.9865 24.9789C15.5409 24.9699 15.1865 24.601 15.1955 24.1555C15.2044 23.7099 15.5733 23.3555 16.0189 23.3644C16.4645 23.3734 16.8187 23.7519 16.8099 24.1878C16.801 24.6334 16.4321 24.9878 15.9865 24.9789Z" fill="#0C0A09"/>
<path id="path96315" fill-rule="evenodd" clip-rule="evenodd" d="M16.0212 23.257C15.5174 23.2469 15.0982 23.6501 15.0881 24.1539C15.0779 24.6577 15.4803 25.0769 15.9842 25.087C16.488 25.0971 16.9079 24.694 16.9181 24.1901C16.928 23.6947 16.5266 23.2672 16.0212 23.257ZM16.0172 23.4722C16.403 23.4799 16.7096 23.8098 16.702 24.1862C16.6942 24.5736 16.3761 24.8796 15.9888 24.8718C15.6014 24.8641 15.2954 24.5452 15.3031 24.1578C15.3109 23.7705 15.6298 23.4644 16.0172 23.4722Z" fill="#0C0A09"/>
</g>
<g id="path96301">
<path id="path96305" fill-rule="evenodd" clip-rule="evenodd" d="M16.4494 22.5129C16.0092 22.5826 15.5953 22.2819 15.5257 21.8417C15.456 21.4015 15.7567 20.9877 16.1969 20.918C16.6371 20.8483 17.0524 21.1586 17.1206 21.5892C17.1903 22.0294 16.8896 22.4432 16.4494 22.5129Z" fill="#0C0A09"/>
<path id="path96307" fill-rule="evenodd" clip-rule="evenodd" d="M16.18 20.8119C15.6823 20.8907 15.3407 21.3608 15.4195 21.8585C15.4983 22.3563 15.9684 22.6979 16.4661 22.6191C16.9638 22.5403 17.3054 22.0702 17.2266 21.5725C17.1492 21.083 16.6793 20.7329 16.18 20.8119ZM16.2139 21.0247C16.595 20.9644 16.955 21.2345 17.0138 21.6063C17.0744 21.989 16.8149 22.3465 16.4322 22.4071C16.0495 22.4676 15.6929 22.2073 15.6323 21.8247C15.5717 21.442 15.8312 21.0853 16.2139 21.0247Z" fill="#0C0A09"/>
</g>
</g>
</g>
<g id="path5585">
<path id="path96363" d="M12.3888 19.6597C11.5547 20.2578 10.6131 20.9208 10.4729 22.102C10.3327 23.2832 10.9404 24.7286 11.0104 26.1182C11.0803 27.5078 10.6554 28.9275 10.2144 30.3795C10.2027 30.4178 10.1987 30.4581 10.2026 30.4979C10.2065 30.5378 10.2183 30.5766 10.2372 30.6119C10.256 30.6473 10.2817 30.6785 10.3127 30.704C10.3437 30.7294 10.3793 30.7485 10.4177 30.7601C10.456 30.7718 10.4963 30.7758 10.5362 30.7719C10.5761 30.7679 10.6148 30.7562 10.6502 30.7373C10.6855 30.7184 10.7168 30.6928 10.7422 30.6618C10.7677 30.6308 10.7867 30.5951 10.7984 30.5568C11.2394 29.1049 11.6967 27.6196 11.6196 26.0874C11.5424 24.5552 10.9736 23.0611 11.0789 22.1737C11.1843 21.2863 11.9101 20.7535 12.7442 20.1554C12.8099 20.1082 12.8542 20.0369 12.8674 19.9571C12.8805 19.8773 12.8615 19.7955 12.8143 19.7298C12.7672 19.6641 12.6959 19.6198 12.6161 19.6066C12.5363 19.5934 12.4545 19.6125 12.3888 19.6597Z" fill="#0C0A09"/>
<g id="g96337">
<g id="path96355">
<path id="path96359" fill-rule="evenodd" clip-rule="evenodd" d="M10.2721 31.2412C9.8457 31.1117 9.60471 30.6605 9.73424 30.234C9.86376 29.8076 10.315 29.5666 10.7414 29.6962C11.1679 29.8257 11.406 30.2862 11.2793 30.7033C11.1498 31.1298 10.6986 31.3708 10.2721 31.2412Z" fill="#0C0A09"/>
<path id="path96361" fill-rule="evenodd" clip-rule="evenodd" d="M10.7725 29.5932C10.2903 29.4468 9.77776 29.7203 9.6313 30.2024C9.48485 30.6846 9.75834 31.1971 10.2405 31.3436C10.7227 31.4901 11.2352 31.2166 11.3817 30.7344C11.5257 30.2602 11.2561 29.7401 10.7725 29.5932ZM10.7102 29.7989C11.0794 29.9111 11.2854 30.3119 11.176 30.6721C11.0634 31.0428 10.6735 31.2505 10.3028 31.1379C9.93206 31.0253 9.7244 30.6354 9.837 30.2647C9.9496 29.894 10.3395 29.6863 10.7102 29.7989Z" fill="#0C0A09"/>
</g>
<g id="path96347">
<path id="path96351" fill-rule="evenodd" clip-rule="evenodd" d="M11.3558 26.9096C10.9107 26.932 10.5313 26.589 10.5088 26.1439C10.4865 25.6988 10.8295 25.3193 11.2746 25.2969C11.7197 25.2745 12.0997 25.6272 12.1216 26.0627C12.144 26.5078 11.8009 26.8872 11.3558 26.9096Z" fill="#0C0A09"/>
<path id="path96353" fill-rule="evenodd" clip-rule="evenodd" d="M11.2693 25.1896C10.766 25.215 10.3762 25.6463 10.4016 26.1495C10.4269 26.6528 10.8582 27.0426 11.3615 27.0172C11.8648 26.9919 12.2545 26.5614 12.2292 26.0581C12.2043 25.5632 11.7741 25.1642 11.2693 25.1896ZM11.2803 25.4048C11.6657 25.3854 11.9951 25.6924 12.014 26.0684C12.0334 26.4553 11.7374 26.7834 11.3504 26.8029C10.9635 26.8223 10.6362 26.5262 10.6167 26.1393C10.5972 25.7523 10.8933 25.4243 11.2803 25.4048Z" fill="#0C0A09"/>
</g>
<g id="path96339">
<path id="path96343" fill-rule="evenodd" clip-rule="evenodd" d="M10.681 22.9403C10.2385 22.8877 9.92191 22.4859 9.97445 22.0433C10.027 21.6008 10.4288 21.2842 10.8714 21.3368C11.314 21.3893 11.6294 21.8007 11.578 22.2337C11.5254 22.6763 11.1236 22.9928 10.681 22.9403Z" fill="#0C0A09"/>
<path id="path96345" fill-rule="evenodd" clip-rule="evenodd" d="M10.8844 21.2301C10.384 21.1706 9.92715 21.5304 9.86775 22.0308C9.80834 22.5312 10.168 22.988 10.6685 23.0474C11.1689 23.1068 11.6257 22.7471 11.6851 22.2467C11.7435 21.7546 11.3864 21.2896 10.8844 21.2301ZM10.8592 21.4436C11.2424 21.4891 11.5159 21.8469 11.4715 22.2207C11.4259 22.6054 11.0792 22.8787 10.6945 22.8331C10.3097 22.7874 10.0364 22.4407 10.0821 22.056C10.1278 21.6713 10.4745 21.398 10.8592 21.4436Z" fill="#0C0A09"/>
</g>
</g>
</g>
<g id="path5587">
<path id="path96385" d="M22.5278 22.4389C22.5047 22.4196 22.4781 22.4051 22.4494 22.3961C22.4207 22.3872 22.3906 22.384 22.3606 22.3867C22.3307 22.3894 22.3016 22.398 22.2749 22.4119C22.2483 22.4259 22.2247 22.445 22.2055 22.4681C22.1862 22.4911 22.1717 22.5178 22.1627 22.5465C22.1538 22.5752 22.1506 22.6053 22.1533 22.6353C22.156 22.6652 22.1646 22.6943 22.1785 22.7209C22.1925 22.7475 22.2116 22.7711 22.2347 22.7904C22.9898 23.4203 23.7263 24.0435 24.1143 24.6929C24.5023 25.3423 24.5861 26.0747 24.6699 26.8475C24.6765 26.9078 24.7068 26.9631 24.7541 27.001C24.8014 27.039 24.8618 27.0567 24.9221 27.0501C24.9824 27.0435 25.0376 27.0132 25.0756 26.9659C25.1136 26.9186 25.1312 26.8582 25.1247 26.7979C25.0408 26.0251 24.957 25.2115 24.5068 24.458C24.0566 23.7045 23.283 23.0688 22.5278 22.4389Z" fill="#0C0A09"/>
<g id="g96367">
<g id="path96377">
<path id="path96381" fill-rule="evenodd" clip-rule="evenodd" d="M24.9619 27.4253C24.6296 27.4614 24.3306 27.2209 24.2946 26.8886C24.2586 26.5563 24.499 26.2573 24.8313 26.2213C25.1636 26.1852 25.4634 26.4329 25.4986 26.758C25.5347 27.0903 25.2942 27.3892 24.9619 27.4253Z" fill="#0C0A09"/>
<path id="path96383" fill-rule="evenodd" clip-rule="evenodd" d="M24.8226 26.1407C24.4469 26.1815 24.1742 26.5215 24.215 26.8973C24.2557 27.273 24.595 27.5465 24.9708 27.5057C25.3465 27.4649 25.62 27.1249 25.5792 26.7491C25.5391 26.3796 25.1995 26.0998 24.8226 26.1407ZM24.8407 26.3015C25.1284 26.2702 25.388 26.4858 25.4184 26.7664C25.4498 27.0553 25.2423 27.3136 24.9534 27.3449C24.6645 27.3763 24.4063 27.1688 24.375 26.8799C24.3436 26.5911 24.5518 26.3328 24.8407 26.3015Z" fill="#0C0A09"/>
</g>
<g id="path96369">
<path id="path96373" fill-rule="evenodd" clip-rule="evenodd" d="M24.6212 25.0957C24.3343 25.2671 23.9623 25.1734 23.7908 24.8864C23.6194 24.5995 23.7131 24.2275 24.0001 24.056C24.287 23.8846 24.6628 23.9845 24.8305 24.2652C25.0019 24.5522 24.9082 24.9242 24.6212 25.0957Z" fill="#0C0A09"/>
<path id="path96375" fill-rule="evenodd" clip-rule="evenodd" d="M24.4799 23.9127C24.3092 23.8689 24.1217 23.8887 23.959 23.9859C23.6345 24.1798 23.5279 24.6033 23.7218 24.9277C23.9156 25.2522 24.3383 25.3588 24.6628 25.165C24.9872 24.9711 25.0938 24.5476 24.9 24.2232C24.8047 24.0636 24.6507 23.9564 24.4799 23.9127ZM24.4405 24.0687C24.5713 24.1023 24.6889 24.1847 24.7613 24.3059C24.9103 24.5554 24.8295 24.8772 24.58 25.0262C24.3306 25.1753 24.0095 25.0944 23.8605 24.845C23.7115 24.5955 23.7923 24.2737 24.0418 24.1247C24.166 24.0504 24.3098 24.0351 24.4405 24.0687Z" fill="#0C0A09"/>
</g>
</g>
</g>
<g id="path5589">
<path id="path96407" d="M21.9081 25.3528C21.8487 25.3413 21.7872 25.3538 21.7371 25.3875C20.8985 25.9522 20.0126 26.5301 19.6446 27.435C19.2767 28.3398 19.4762 29.4358 19.6525 30.4983C19.6624 30.5581 19.6956 30.6114 19.7448 30.6468C19.794 30.6821 19.8552 30.6964 19.9149 30.6867C19.9446 30.6818 19.973 30.6711 19.9985 30.6552C20.024 30.6393 20.0462 30.6186 20.0637 30.5941C20.0812 30.5697 20.0937 30.542 20.1005 30.5127C20.1073 30.4834 20.1082 30.4531 20.1033 30.4235C19.927 29.3609 19.7736 28.3311 20.0678 27.6076C20.3621 26.884 21.1538 26.3321 21.9924 25.7673C22.0426 25.7334 22.0774 25.6808 22.0889 25.6213C22.1004 25.5617 22.0878 25.5 22.0538 25.4497C22.02 25.3994 21.9676 25.3645 21.9081 25.3528Z" fill="#0C0A09"/>
<g id="g96389">
<g id="path96399">
<path id="path96403" fill-rule="evenodd" clip-rule="evenodd" d="M19.9762 31.0583C19.6465 31.113 19.3344 30.8898 19.2797 30.56C19.225 30.2303 19.4482 29.9182 19.778 29.8635C20.1077 29.8088 20.421 30.0392 20.4745 30.3618C20.5292 30.6915 20.306 31.0036 19.9762 31.0583Z" fill="#0C0A09"/>
<path id="path96405" fill-rule="evenodd" clip-rule="evenodd" d="M19.765 29.7836C19.3921 29.8454 19.1388 30.2004 19.2007 30.5733C19.2626 30.9461 19.6168 31.2002 19.9896 31.1383C20.3625 31.0765 20.6165 30.7215 20.5547 30.3486C20.4938 29.982 20.139 29.7215 19.765 29.7836ZM19.7918 29.9436C20.0773 29.8962 20.3493 30.0961 20.3955 30.3746C20.443 30.6613 20.2502 30.9308 19.9636 30.9783C19.6769 31.0259 19.4075 30.8331 19.3599 30.5465C19.3123 30.2598 19.5051 29.9911 19.7918 29.9436Z" fill="#0C0A09"/>
</g>
<g id="path96391">
<path id="path96395" fill-rule="evenodd" clip-rule="evenodd" d="M19.6275 28.0816C19.3179 27.9557 19.1688 27.6022 19.2947 27.2926C19.4207 26.9829 19.7742 26.8338 20.0838 26.9598C20.3934 27.0857 20.5398 27.4459 20.4166 27.7488C20.2907 28.0585 19.9372 28.2076 19.6275 28.0816Z" fill="#0C0A09"/>
<path id="path96397" fill-rule="evenodd" clip-rule="evenodd" d="M20.1149 26.8855C19.7648 26.7431 19.3628 26.9121 19.2204 27.2622C19.078 27.6123 19.2471 28.0143 19.5971 28.1567C19.9473 28.2991 20.3493 28.1293 20.4916 27.7792C20.6317 27.4349 20.4661 27.0283 20.1149 26.8855ZM20.0535 27.0344C20.3215 27.1434 20.4483 27.457 20.3419 27.7185C20.2324 27.9877 19.9278 28.1164 19.6586 28.0069C19.3894 27.8975 19.2607 27.592 19.3702 27.3229C19.4796 27.0537 19.7843 26.925 20.0535 27.0344Z" fill="#0C0A09"/>
</g>
</g>
</g>
<g id="path5591">
<path id="path96421" d="M15.8755 21.3371C15.8459 21.3314 15.8155 21.3316 15.786 21.3377C15.7566 21.3438 15.7286 21.3557 15.7037 21.3726C15.6535 21.4067 15.619 21.4593 15.6076 21.5188C15.5962 21.5784 15.6089 21.64 15.643 21.6902C16.5197 22.9861 17.396 24.2813 18.2721 25.5763C18.3061 25.6266 18.3586 25.6613 18.4182 25.6729C18.4777 25.6844 18.5394 25.6718 18.5897 25.6378C18.6398 25.6037 18.6744 25.5511 18.6858 25.4916C18.6971 25.432 18.6844 25.3704 18.6504 25.3202C17.7743 24.0252 16.898 22.73 16.0213 21.4341C15.9874 21.3837 15.935 21.3488 15.8755 21.3371Z" fill="#0C0A09"/>
<g id="g96411">
<g id="path96413">
<path id="path96417" fill-rule="evenodd" clip-rule="evenodd" d="M18.8003 25.9502C18.5235 26.1375 18.1467 26.0648 17.9594 25.788C17.7721 25.5111 17.8448 25.1344 18.1217 24.9471C18.3985 24.7598 18.7793 24.8385 18.9625 25.1094C19.1498 25.3862 19.0772 25.7629 18.8003 25.9502Z" fill="#0C0A09"/>
<path id="path96419" fill-rule="evenodd" clip-rule="evenodd" d="M18.5927 24.7768C18.4198 24.7428 18.2335 24.774 18.0765 24.8801C17.7635 25.0919 17.6811 25.5199 17.8929 25.8329C18.1047 26.1459 18.5327 26.2291 18.8457 26.0173C19.1588 25.8055 19.2411 25.3775 19.0293 25.0645C18.9252 24.9106 18.7657 24.8109 18.5927 24.7768ZM18.562 24.936C18.6944 24.9622 18.817 25.0374 18.8961 25.1543C19.059 25.395 18.9958 25.7205 18.7551 25.8833C18.5144 26.0461 18.1897 25.9837 18.0269 25.743C17.864 25.5024 17.9265 25.1769 18.1671 25.0141C18.287 24.933 18.4295 24.9098 18.562 24.936Z" fill="#0C0A09"/>
</g>
</g>
</g>
<g id="path5593">
<path id="path96443" d="M15.5653 24.0164C15.5059 24.0042 15.4441 24.0161 15.3934 24.0495C14.685 24.5154 13.9329 25.0034 13.4776 25.8519C13.0222 26.7003 12.8925 27.8285 12.7557 28.9373C12.7519 28.9672 12.7541 28.9975 12.7622 29.0265C12.7702 29.0555 12.7838 29.0826 12.8024 29.1063C12.8209 29.1301 12.8439 29.1499 12.8701 29.1647C12.8963 29.1795 12.9252 29.189 12.9551 29.1926C13.0151 29.1999 13.0756 29.1831 13.1233 29.1459C13.171 29.1087 13.2021 29.0541 13.2096 28.994C13.3464 27.8853 13.4909 26.7956 13.8811 26.0686C14.2713 25.3416 14.9364 24.8976 15.6449 24.4317C15.6955 24.3984 15.7309 24.3462 15.7432 24.2868C15.7554 24.2274 15.7436 24.1656 15.7103 24.1149C15.6938 24.0897 15.6724 24.0681 15.6476 24.0512C15.6227 24.0343 15.5947 24.0225 15.5653 24.0164Z" fill="#0C0A09"/>
<g id="g96425">
<g id="path96435">
<path id="path96439" fill-rule="evenodd" clip-rule="evenodd" d="M12.9084 29.5669C12.5767 29.526 12.3406 29.2235 12.3816 28.8918C12.4225 28.5601 12.725 28.324 13.0567 28.365C13.3884 28.4059 13.6236 28.7156 13.5835 29.0401C13.5426 29.3718 13.2402 29.6079 12.9084 29.5669Z" fill="#0C0A09"/>
<path id="path96441" fill-rule="evenodd" clip-rule="evenodd" d="M13.0673 28.2855C12.6922 28.2392 12.3483 28.507 12.3021 28.8821C12.2558 29.2572 12.5243 29.601 12.8994 29.6473C13.2745 29.6936 13.6184 29.4258 13.6647 29.0507C13.7102 28.6819 13.4436 28.3319 13.0673 28.2855ZM13.0476 28.4455C13.3348 28.4809 13.5385 28.7508 13.5039 29.031C13.4683 29.3194 13.2075 29.5229 12.9191 29.4873C12.6308 29.4517 12.4265 29.1902 12.462 28.9018C12.4976 28.6134 12.7592 28.4099 13.0476 28.4455Z" fill="#0C0A09"/>
</g>
<g id="path96427">
<path id="path96431" fill-rule="evenodd" clip-rule="evenodd" d="M13.3935 26.4946C13.0989 26.3366 12.9882 25.9692 13.1463 25.6747C13.3043 25.3802 13.6717 25.2694 13.9662 25.4275C14.2607 25.5856 14.368 25.9593 14.2134 26.2474C14.0553 26.5419 13.688 26.6527 13.3935 26.4946Z" fill="#0C0A09"/>
<path id="path96433" fill-rule="evenodd" clip-rule="evenodd" d="M13.4822 25.3038C13.3138 25.3546 13.1649 25.4699 13.0755 25.6364C12.8968 25.9694 13.0223 26.3869 13.3553 26.5656C13.6883 26.7443 14.1058 26.618 14.2845 26.285C14.4602 25.9576 14.3388 25.5351 14.0047 25.3558C13.8382 25.2665 13.6505 25.2531 13.4822 25.3038ZM13.5287 25.4575C13.6572 25.4188 13.8002 25.4298 13.9283 25.4985C14.1833 25.6354 14.2761 25.9598 14.1426 26.2086C14.0052 26.4646 13.6878 26.5603 13.4318 26.4229C13.1757 26.2855 13.08 25.9681 13.2174 25.7121C13.2861 25.5841 13.4002 25.4962 13.5287 25.4575Z" fill="#0C0A09"/>
</g>
</g>
</g>
<g id="path5595">
<path id="path96465" d="M15.6732 26.8926C15.6137 26.9038 15.561 26.938 15.5266 26.988C15.5096 27.0128 15.4976 27.0407 15.4913 27.0701C15.4851 27.0995 15.4847 27.1299 15.4902 27.1594C15.4957 27.189 15.5069 27.2172 15.5233 27.2424C15.5397 27.2677 15.5609 27.2894 15.5858 27.3064C16.2946 27.793 16.9525 28.2628 17.1809 28.8818C17.4093 29.5009 17.2517 30.4109 17.0698 31.3494C17.0583 31.4089 17.0709 31.4706 17.1049 31.5209C17.1389 31.5711 17.1915 31.6058 17.251 31.6173C17.3106 31.6288 17.3723 31.6162 17.4225 31.5822C17.4728 31.5482 17.5075 31.4956 17.519 31.4361C17.701 30.4976 17.907 29.5293 17.6096 28.7234C17.3122 27.9174 16.5539 27.4155 15.845 26.9289C15.8202 26.9118 15.7922 26.8998 15.7628 26.8936C15.7333 26.8874 15.7029 26.8871 15.6732 26.8926Z" fill="#0C0A09"/>
<g id="g96447">
<g id="path96457">
<path id="path96461" fill-rule="evenodd" clip-rule="evenodd" d="M17.1779 31.9872C16.8497 31.9236 16.635 31.6056 16.6987 31.2775C16.7623 30.9493 17.0803 30.7347 17.4084 30.7983C17.7366 30.8619 17.9498 31.187 17.8876 31.508C17.824 31.8362 17.506 32.0509 17.1779 31.9872Z" fill="#0C0A09"/>
<path id="path96463" fill-rule="evenodd" clip-rule="evenodd" d="M17.4247 30.7186C17.0536 30.6467 16.692 30.8906 16.62 31.2616C16.5481 31.6327 16.792 31.9943 17.163 32.0663C17.534 32.1382 17.8957 31.8943 17.9677 31.5233C18.0384 31.1584 17.7968 30.7908 17.4247 30.7186ZM17.3939 30.877C17.678 30.9321 17.863 31.2154 17.8093 31.4926C17.7539 31.7778 17.479 31.9632 17.1937 31.9079C16.9085 31.8526 16.7231 31.5776 16.7784 31.2924C16.8337 31.0071 17.1087 30.8217 17.3939 30.877Z" fill="#0C0A09"/>
</g>
<g id="path96449">
<path id="path96453" fill-rule="evenodd" clip-rule="evenodd" d="M17.6043 29.3713C17.2907 29.487 16.9423 29.3264 16.8266 29.0128C16.7109 28.6992 16.8715 28.3508 17.1851 28.235C17.4987 28.1193 17.8496 28.2868 17.9628 28.5935C18.0785 28.9071 17.9179 29.2556 17.6043 29.3713Z" fill="#0C0A09"/>
<path id="path96455" fill-rule="evenodd" clip-rule="evenodd" d="M17.158 28.1591C16.8034 28.2899 16.6205 28.6856 16.7513 29.0402C16.8821 29.3948 17.2786 29.5777 17.6332 29.4469C17.9878 29.316 18.1699 28.9195 18.0391 28.565C17.9104 28.2163 17.5136 28.0279 17.158 28.1591ZM17.2139 28.3104C17.4854 28.2102 17.79 28.356 17.8877 28.6209C17.9883 28.8935 17.8498 29.195 17.5772 29.2955C17.3046 29.3961 17.0032 29.2568 16.9026 28.9842C16.802 28.7116 16.9413 28.411 17.2139 28.3104Z" fill="#0C0A09"/>
</g>
</g>
</g>
<g id="path5597">
<path id="path96479" d="M10.2263 21.9249C10.1718 21.8987 10.109 21.8952 10.0518 21.9151C9.99467 21.9351 9.94774 21.9768 9.92134 22.0313C9.90822 22.0584 9.90058 22.0878 9.89883 22.1178C9.89708 22.1478 9.90126 22.1779 9.91114 22.2063C9.92102 22.2347 9.9364 22.2609 9.95641 22.2833C9.97641 22.3058 10.0006 22.324 10.0277 22.3371C11.0287 22.8182 12.0296 23.2988 13.0296 23.7794C13.0843 23.8055 13.1471 23.809 13.2043 23.7889C13.2615 23.7688 13.3083 23.7268 13.3346 23.6722C13.3609 23.6176 13.3644 23.5549 13.3444 23.4977C13.3245 23.4405 13.2827 23.3936 13.2282 23.3672C12.2282 22.8866 11.2274 22.406 10.2263 21.9249Z" fill="#0C0A09"/>
<g id="g96469">
<g id="path96471">
<path id="path96475" fill-rule="evenodd" clip-rule="evenodd" d="M13.6749 23.8363C13.5301 24.1376 13.168 24.2646 12.8668 24.1198C12.5655 23.975 12.4385 23.613 12.5833 23.3117C12.7281 23.0104 13.0966 22.8866 13.3914 23.0282C13.6926 23.173 13.8196 23.535 13.6749 23.8363Z" fill="#0C0A09"/>
<path id="path96477" fill-rule="evenodd" clip-rule="evenodd" d="M12.9049 22.9271C12.7383 22.9848 12.5929 23.1054 12.5108 23.2762C12.3471 23.6169 12.4917 24.0283 12.8324 24.192C13.173 24.3557 13.5844 24.2119 13.7481 23.8713C13.9119 23.5306 13.7672 23.1192 13.4266 22.9555C13.2591 22.875 13.0714 22.8694 12.9049 22.9271ZM12.9577 23.08C13.0853 23.0359 13.2292 23.0393 13.3565 23.1005C13.6184 23.2264 13.7282 23.5392 13.6023 23.8011C13.4765 24.063 13.1636 24.1729 12.9017 24.047C12.6398 23.9211 12.5308 23.6083 12.6566 23.3464C12.7193 23.216 12.8301 23.1241 12.9577 23.08Z" fill="#0C0A09"/>
</g>
</g>
</g>
<g id="path5599">
<path id="path96501" d="M6.63366 23.1858C5.60494 23.7447 4.56029 24.3002 3.93598 25.004C3.31168 25.7078 3.17702 26.5129 3.05015 27.2564C3.03993 27.3162 3.05386 27.3776 3.08889 27.4271C3.12391 27.4766 3.17716 27.5101 3.23693 27.5204C3.29671 27.5306 3.35809 27.5167 3.4076 27.4817C3.45711 27.4466 3.49068 27.3934 3.50094 27.3336C3.62782 26.5902 3.74635 25.9068 4.27801 25.3074C4.80966 24.7081 5.82324 24.1466 6.85196 23.5878C6.87837 23.5734 6.90167 23.554 6.92055 23.5306C6.93944 23.5072 6.95354 23.4803 6.96203 23.4515C6.97052 23.4226 6.97326 23.3924 6.97006 23.3625C6.96686 23.3326 6.95779 23.3036 6.94338 23.2773C6.91435 23.2241 6.86546 23.1847 6.80741 23.1676C6.74936 23.1504 6.68688 23.157 6.63366 23.1858Z" fill="#0C0A09"/>
<g id="g96483">
<g id="path96493">
<path id="path96497" fill-rule="evenodd" clip-rule="evenodd" d="M3.17171 27.892C2.84221 27.8358 2.62045 27.5227 2.67668 27.1932C2.73291 26.8637 3.04596 26.6419 3.37546 26.6982C3.70496 26.7544 3.92552 27.0746 3.87051 27.3969C3.81428 27.7264 3.50121 27.9482 3.17171 27.892Z" fill="#0C0A09"/>
<path id="path96499" fill-rule="evenodd" clip-rule="evenodd" d="M3.38975 26.6182C3.01719 26.5546 2.66128 26.8068 2.5977 27.1793C2.53412 27.5519 2.78627 27.9078 3.15883 27.9714C3.53139 28.035 3.8873 27.7828 3.95088 27.4103C4.0134 27.0439 3.76346 26.682 3.38975 26.6182ZM3.36295 26.7774C3.64823 26.8261 3.83917 27.1051 3.79168 27.3835C3.7428 27.6699 3.47285 27.8611 3.18642 27.8122C2.89998 27.7633 2.70802 27.4934 2.7569 27.2069C2.80578 26.9205 3.07652 26.7285 3.36295 26.7774Z" fill="#0C0A09"/>
</g>
<g id="path96485">
<path id="path96489" fill-rule="evenodd" clip-rule="evenodd" d="M3.70362 25.6083C3.45356 25.3865 3.43065 25.0035 3.65246 24.7534C3.87428 24.5034 4.25723 24.4804 4.50728 24.7023C4.75734 24.9241 4.77545 25.3125 4.55846 25.5571C4.33665 25.8072 3.95367 25.8301 3.70362 25.6083Z" fill="#0C0A09"/>
<path id="path96491" fill-rule="evenodd" clip-rule="evenodd" d="M4.06452 24.471C3.88901 24.4815 3.71785 24.5589 3.59245 24.7003C3.34164 24.983 3.36724 25.4181 3.64998 25.6689C3.93272 25.9197 4.36854 25.8941 4.61935 25.6114C4.86597 25.3333 4.84464 24.8936 4.56103 24.642C4.41966 24.5166 4.24003 24.4605 4.06452 24.471ZM4.07395 24.6317C4.20789 24.6237 4.34513 24.6669 4.45382 24.7634C4.67032 24.9554 4.68531 25.293 4.49795 25.5042C4.30513 25.7215 3.97451 25.7411 3.75713 25.5483C3.53976 25.3555 3.52018 25.0249 3.713 24.8075C3.80941 24.6988 3.94001 24.6398 4.07395 24.6317Z" fill="#0C0A09"/>
</g>
</g>
</g>
<path id="path5601" d="M13.8501 16.6052C13.8102 16.6355 13.7767 16.6733 13.7514 16.7166C13.7261 16.7598 13.7096 16.8076 13.7028 16.8572C13.6959 16.9068 13.699 16.9573 13.7117 17.0058C13.7244 17.0542 13.7465 17.0997 13.7768 17.1396C13.9903 17.4204 14.206 17.7047 14.4049 17.93C14.6038 18.1553 14.8963 18.3843 15.3727 18.4707C15.6108 18.5138 15.8815 18.5352 16.1277 18.5692C16.3739 18.6032 16.5968 18.6627 16.6613 18.6992C16.7259 18.7359 16.7537 18.788 16.8615 18.9388C16.9692 19.0896 17.18 19.3059 17.4998 19.3967C17.8194 19.4874 18.1821 19.4892 18.5598 19.4991C18.9375 19.5092 19.3222 19.5201 19.5773 19.5669C20.0875 19.6605 20.2259 19.8564 20.4844 20.1627C20.5495 20.2399 20.6426 20.288 20.7433 20.2966C20.8439 20.3051 20.9438 20.2734 21.0211 20.2084C21.0594 20.1762 21.091 20.1367 21.114 20.0922C21.137 20.0477 21.1511 19.9991 21.1553 19.9492C21.1596 19.8992 21.1539 19.849 21.1387 19.8012C21.1235 19.7535 21.0991 19.7092 21.0668 19.671C20.8083 19.3646 20.4299 18.9478 19.7152 18.8166C19.3577 18.7511 18.9539 18.7469 18.5803 18.737C18.2067 18.7272 17.8548 18.7047 17.7079 18.663C17.5612 18.6213 17.5551 18.5975 17.4825 18.4959C17.4098 18.3942 17.2938 18.1808 17.038 18.0356C16.782 17.8904 16.5071 17.8513 16.2325 17.8134C15.958 17.7754 15.6847 17.7522 15.5091 17.7204C15.158 17.6567 15.144 17.6156 14.9763 17.4256C14.8087 17.2358 14.5979 16.9586 14.3844 16.6777C14.3541 16.6379 14.3162 16.6044 14.273 16.5792C14.2297 16.554 14.1819 16.5375 14.1323 16.5308C14.0827 16.5241 14.0322 16.5272 13.9838 16.5399C13.9354 16.5527 13.89 16.5749 13.8501 16.6052Z" fill="#0C0A09"/>
<path id="path5603" d="M24.0112 11.6687C23.9671 11.6503 23.9199 11.6408 23.8722 11.6406C23.8245 11.6405 23.7772 11.6498 23.733 11.6679C23.6889 11.6861 23.6488 11.7127 23.615 11.7464C23.5811 11.7801 23.5543 11.8201 23.5359 11.8641C23.3949 12.2035 23.3574 12.386 22.8676 12.5923C22.3779 12.7987 21.3518 12.9622 20.6128 13.122C19.8739 13.2817 19.4293 13.4526 19.0169 13.6122C18.9272 13.647 18.8549 13.716 18.8161 13.8041C18.7772 13.8922 18.7749 13.9921 18.8097 14.0819C18.8268 14.1264 18.8526 14.1671 18.8855 14.2016C18.9184 14.2362 18.9578 14.2639 19.0014 14.2832C19.045 14.3025 19.092 14.3131 19.1397 14.3142C19.1874 14.3154 19.2349 14.3071 19.2794 14.2899C19.6917 14.1304 20.0719 13.9822 20.7665 13.832C21.4611 13.6819 22.4775 13.5447 23.1498 13.2614C23.8219 12.9782 24.0656 12.4825 24.2066 12.1431C24.2435 12.0543 24.2437 11.9544 24.207 11.8655C24.1704 11.7765 24.0999 11.7058 24.0112 11.6687Z" fill="#0C0A09"/>
<path id="path5605" d="M21.9516 6.89373C21.8578 6.87249 21.7594 6.88935 21.6779 6.94063C21.5965 6.9919 21.5388 7.07339 21.5174 7.1672C21.4236 7.5804 21.3645 7.86272 21.0374 8.12002C20.7103 8.37735 19.9759 8.64136 19.4786 8.85926C18.9812 9.07716 18.7383 9.27918 18.5557 9.43694C18.5196 9.46809 18.4899 9.50605 18.4685 9.54865C18.447 9.59126 18.4342 9.63767 18.4307 9.68524C18.4272 9.73281 18.433 9.78061 18.448 9.8259C18.463 9.87119 18.4867 9.91309 18.5179 9.94921C18.549 9.98533 18.587 10.015 18.6296 10.0364C18.6722 10.0579 18.7186 10.0707 18.7662 10.0742C18.8138 10.0777 18.8615 10.0718 18.9068 10.0569C18.9521 10.0419 18.994 10.0182 19.0301 9.98702C19.2128 9.82926 19.3349 9.71591 19.7702 9.52519C20.2055 9.33445 20.9705 9.09661 21.4867 8.69059C22.0029 8.28453 22.1321 7.74115 22.2259 7.32795C22.2364 7.28143 22.2377 7.23329 22.2296 7.18629C22.2215 7.13929 22.2042 7.09435 22.1787 7.05403C22.1533 7.0137 22.1201 6.97879 22.0811 6.95128C22.0422 6.92378 21.9981 6.90423 21.9516 6.89373Z" fill="#0C0A09"/>
<path id="path5607" d="M9.82717 19.5003C9.91357 19.341 10.341 18.8471 10.7148 18.6527C11.6406 18.1712 11.7375 17.8992 11.3912 16.753C11.2119 16.1596 11.1943 16.0272 11.228 15.5324C11.2446 15.2924 11.7554 14.5598 12.2546 14.0605C12.7879 13.5272 12.95 13.4931 14.6055 13.565C16.8078 13.6607 17.1167 13.6179 17.5308 13.1596C17.8845 12.7681 18.0457 12.1889 17.947 11.6647C17.8305 11.0464 17.5818 10.4626 17.3257 10.2065C17.0355 9.91628 16.7744 9.84757 15.1192 9.62578C13.9998 9.47579 13.8066 9.43049 13.5615 9.26058C13.4075 9.1539 12.75 8.51923 12.1004 7.85022L10.7941 6.46503L11.6901 6.43848L12.4329 6.4549L12.9598 7.14018C13.211 7.46707 13.497 7.75665 13.5271 7.84162C13.557 7.92658 13.6856 8.04689 13.8124 8.10896C13.9393 8.17104 14.185 8.29589 14.3584 8.38641C14.6501 8.53868 14.7915 8.55443 16.2487 8.59684C17.1466 8.62298 17.9068 8.67732 18.0172 8.72327C18.1236 8.7676 18.4207 8.93648 18.6773 9.09854C19.0117 9.30973 19.1554 9.44692 19.1846 9.58279C19.2072 9.68706 19.4564 10.5595 19.7389 11.5214L20.2524 13.2705L20.0358 13.6614C19.889 13.9263 19.7391 14.0913 19.5704 14.1737C19.4336 14.2405 18.5512 14.5191 17.6097 14.7928C14.2057 15.7824 14.2247 15.7699 14.3639 16.9202C14.4666 17.7678 14.6167 18.2653 14.8109 18.4019C14.9811 18.5215 15.1511 18.5715 16.0234 18.7585C16.5249 18.866 16.8113 19.4621 16.9721 19.6986C17.0697 19.8422 14.4397 19.8007 14.4397 19.8007L13.9519 19.2416C13.5596 18.792 13.481 18.508 13.4766 18.0111C13.4726 17.5964 13.4034 17.4034 13.3444 17.2179C13.3048 17.0933 13.1872 17.595 13.1872 18.1181C13.1872 18.6373 13.2081 18.7226 13.419 19.0643C13.5465 19.2709 13.4625 19.6828 13.4625 19.7018C13.4625 19.7208 9.66161 19.8055 9.68566 19.7612L9.82717 19.5003Z" fill="#0C0A09"/>
<path id="path5609" d="M19.9567 7.28649C21.2788 7.44369 23.77 7.49277 25.0071 7.46952C26.2442 7.44627 26.2277 7.35025 26.2803 7.12548C26.333 6.90072 26.4551 6.54748 26.3168 6.05342C26.1786 5.55936 25.7796 4.92429 25.2878 4.77853C24.7959 4.63276 24.2114 4.97684 23.8849 4.90283C23.5584 4.82883 23.4899 4.33621 22.9997 4.09855C22.5095 3.8609 21.5974 3.87867 21.068 4.17078C20.5386 4.46289 20.3925 5.02903 20.0474 5.26199C19.7022 5.49495 19.1575 5.39492 18.8375 5.56208C18.5176 5.72924 18.423 6.16334 18.4523 6.5134C18.4816 6.86346 18.6345 7.12928 19.9567 7.28649Z" fill="#0C0A09"/>
<path id="path5611" d="M7.54405 6.70026C9.41053 6.73173 13.143 6.79465 15.0623 6.63034C16.9817 6.46603 17.0882 6.07423 17.035 5.51544C16.9818 4.95665 16.7687 4.23072 16.3584 3.86655C15.9481 3.50239 15.3404 3.50051 15.1696 3.29989C14.9989 3.09927 15.2655 2.69984 14.7444 2.19966C14.2233 1.69948 12.9139 1.09841 11.9203 1.08519C10.9266 1.07195 10.2492 1.6468 9.60282 1.77484C8.95649 1.90289 8.34089 1.58384 7.7874 1.73029C7.23391 1.87675 6.74307 2.48891 6.62401 3.03339C6.50495 3.57787 6.75734 4.05421 6.63546 4.37475C6.51361 4.6953 6.01754 4.86057 5.79544 5.21728C5.57334 5.574 5.62548 6.12161 5.65151 6.39521C5.67754 6.66881 5.67756 6.66879 7.54405 6.70026Z" fill="#0C0A09"/>
<path id="path5613" d="M22.6445 11.772C23.416 11.9457 24.7059 12.0054 25.5385 11.9027C26.3712 11.8 26.747 11.5349 26.8555 11.1148C26.9639 10.6946 26.805 10.1188 26.5114 9.91582C26.2179 9.71283 25.7897 9.88325 25.639 9.78836C25.4883 9.69347 25.6155 9.33298 25.3063 9.1079C24.9972 8.88282 24.2512 8.79334 23.8473 8.93944C23.4435 9.08554 23.3823 9.46693 23.1409 9.563C22.8995 9.65906 22.4773 9.46993 22.1513 9.66551C21.8252 9.8611 21.5958 10.4414 21.6079 10.8758C21.6199 11.3101 21.873 11.5983 22.6445 11.772Z" fill="#0C0A09"/>
<path id="path5615" d="M6.008 13.1397C7.22476 13.348 9.35809 13.1092 10.4847 12.8479C11.6112 12.5866 11.7315 12.3025 11.6975 11.8605C11.6635 11.4184 11.475 10.8182 11.1461 10.558C10.8172 10.2979 10.3476 10.3785 10.0976 10.2054C9.84751 10.0324 9.81726 9.60531 9.36146 9.38407C8.90566 9.16282 8.02395 9.14785 7.545 9.42731C7.06606 9.70677 6.99034 10.2803 6.71777 10.4078C6.4452 10.5353 5.9753 10.2168 5.52108 10.3442C5.06686 10.4717 4.62884 11.0453 4.56001 11.6604C4.49118 12.2754 4.79125 12.9314 6.008 13.1397Z" fill="#0C0A09"/>
<path id="path5617" d="M9.91808 20.4189C9.98977 20.4807 10.4601 20.2387 10.759 20.2636C11.0578 20.2885 11.1851 20.5796 11.4041 20.5515C11.6232 20.5234 11.9345 20.1765 11.7995 19.9692C11.6645 19.7618 11.0828 19.694 10.6282 19.8428C10.1735 19.9916 9.84638 20.3572 9.91808 20.4189Z" fill="#0C0A09"/>
<path id="path5619" d="M13.2917 19.8238C13.4853 19.9852 13.3778 20.2724 13.1664 20.3807C12.955 20.489 12.639 20.4185 12.4053 20.4301C12.1716 20.4417 12.0206 20.5355 11.9846 20.4096C11.9487 20.2837 12.028 19.9378 12.3155 19.7824C12.603 19.6271 13.0981 19.6624 13.2917 19.8238Z" fill="#0C0A09"/>
<path id="path5621" d="M17.5036 20.4061C17.3437 20.3896 17.0233 20.3565 16.7685 20.3456C16.5138 20.3347 16.3248 20.3459 16.1864 20.4077C16.048 20.4695 15.9608 20.5816 15.8477 20.5329C15.7345 20.4842 15.596 20.275 15.5705 20.0783C15.545 19.8815 15.6333 19.6989 16.0008 19.7585C16.3683 19.8182 17.0167 20.1207 17.3402 20.2716C17.6636 20.4225 17.6636 20.4226 17.5036 20.4061Z" fill="#0C0A09"/>
<g id="path5623">
<path id="path95962" d="M16.6844 19.4192C16.6543 19.4177 16.6241 19.4221 16.5957 19.4323C16.5673 19.4424 16.5412 19.4581 16.5189 19.4784C16.4966 19.4985 16.4785 19.5228 16.4656 19.5499C16.4526 19.5771 16.4452 19.6065 16.4437 19.6365C16.4421 19.6665 16.4465 19.6965 16.4566 19.7248C16.4667 19.7531 16.4822 19.7792 16.5023 19.8015C17.036 20.3933 17.583 21.0055 18.3008 21.421C18.6596 21.6288 19.0395 21.776 19.3576 21.9325C19.6757 22.089 19.922 22.2527 20.0488 22.4542C20.3024 22.8575 20.1911 23.6771 20.0338 24.5364C20.0284 24.566 20.0288 24.5963 20.0351 24.6257C20.0414 24.655 20.0534 24.6829 20.0705 24.7076C20.0875 24.7324 20.1093 24.7535 20.1345 24.7698C20.1597 24.7862 20.1879 24.7974 20.2174 24.8028C20.2471 24.8082 20.2774 24.8077 20.3069 24.8014C20.3363 24.7951 20.3642 24.783 20.3889 24.7659C20.4137 24.7487 20.4348 24.7269 20.4511 24.7016C20.4674 24.6763 20.4785 24.648 20.4838 24.6184C20.6411 23.7591 20.8438 22.8594 20.4358 22.2107C20.2317 21.8863 19.9028 21.6909 19.5594 21.5219C19.2159 21.353 18.8477 21.2085 18.5301 21.0246C17.895 20.6569 17.3756 20.0868 16.842 19.4949C16.8015 19.4498 16.7449 19.4226 16.6844 19.4192Z" fill="#0C0A09"/>
<g id="g95936">
<g id="path95954">
<path id="path95958" fill-rule="evenodd" clip-rule="evenodd" d="M20.1509 25.173C19.8221 25.1128 19.6041 24.7971 19.6643 24.4683C19.7244 24.1395 20.0401 23.9215 20.3689 23.9817C20.6977 24.0418 20.9144 24.3647 20.8556 24.6863C20.7954 25.0151 20.4797 25.2331 20.1509 25.173Z" fill="#0C0A09"/>
<path id="path95960" fill-rule="evenodd" clip-rule="evenodd" d="M20.3838 23.9019C20.012 23.8338 19.6535 24.0818 19.5855 24.4535C19.5174 24.8253 19.7654 25.1846 20.1371 25.2527C20.5089 25.3207 20.8674 25.0728 20.9355 24.701C21.0024 24.3354 20.7567 23.9701 20.3838 23.9019ZM20.3546 24.0611C20.6393 24.1132 20.8271 24.3941 20.7763 24.6718C20.724 24.9577 20.4513 25.1458 20.1655 25.0935C19.8796 25.0412 19.6915 24.7685 19.7438 24.4827C19.7961 24.1969 20.0688 24.0088 20.3546 24.0611Z" fill="#0C0A09"/>
</g>
<g id="path95946">
<path id="path95950" fill-rule="evenodd" clip-rule="evenodd" d="M20.5647 22.8452C20.2817 23.0231 19.9077 22.9379 19.7297 22.655C19.5517 22.3721 19.6369 21.998 19.9198 21.82C20.2028 21.642 20.5807 21.7334 20.7548 22.0102C20.9328 22.2931 20.8476 22.6672 20.5647 22.8452Z" fill="#0C0A09"/>
<path id="path95952" fill-rule="evenodd" clip-rule="evenodd" d="M20.3968 21.6655C20.2251 21.6257 20.0379 21.6505 19.8774 21.7514C19.5575 21.9527 19.4603 22.378 19.6615 22.6979C19.8627 23.0179 20.2881 23.1151 20.608 22.9139C20.9279 22.7127 21.0252 22.2873 20.824 21.9674C20.725 21.8101 20.5685 21.7053 20.3968 21.6655ZM20.3606 21.8231C20.4921 21.8537 20.6117 21.9338 20.6868 22.0533C20.8416 22.2992 20.7681 22.622 20.5221 22.7768C20.2762 22.9315 19.9534 22.858 19.7987 22.612C19.6439 22.3661 19.7174 22.0433 19.9634 21.8886C20.0859 21.8115 20.2291 21.7926 20.3606 21.8231Z" fill="#0C0A09"/>
</g>
<g id="path95938">
<path id="path95942" fill-rule="evenodd" clip-rule="evenodd" d="M18.9402 21.5265C18.7727 21.8158 18.402 21.9146 18.1127 21.7472C17.8234 21.5797 17.7246 21.209 17.8921 20.9197C18.0595 20.6304 18.4365 20.5352 18.7195 20.699C19.0088 20.8665 19.1077 21.2372 18.9402 21.5265Z" fill="#0C0A09"/>
<path id="path95944" fill-rule="evenodd" clip-rule="evenodd" d="M18.2418 20.5611C18.0713 20.6059 17.9175 20.7147 17.8226 20.8787C17.6332 21.2058 17.7453 21.6272 18.0724 21.8166C18.3995 22.0059 18.8209 21.8938 19.0102 21.5667C19.1996 21.2397 19.0875 20.8183 18.7604 20.6289C18.5996 20.5358 18.4123 20.5163 18.2418 20.5611ZM18.2836 20.7172C18.4142 20.683 18.557 20.6977 18.6792 20.7684C18.9307 20.914 19.0163 21.2341 18.8707 21.4856C18.7251 21.737 18.405 21.8227 18.1536 21.6771C17.9021 21.5315 17.8165 21.2114 17.962 20.9599C18.0345 20.8347 18.153 20.7514 18.2836 20.7172Z" fill="#0C0A09"/>
</g>
</g>
</g>
</g>
</g>
</g>
<defs>
<clipPath id="clip0_1861_4408">
<rect width="40" height="40" fill="white" transform="translate(-4.4375 -4.42188)"/>
</clipPath>
</defs>
</svg>
